<svg width="17" height="16" viewBox="0 0 17 16" fill="none" xmlns="http://www.w3.org/2000/svg">
<path d="M7.78994 8.94946C7.78994 9.40666 7.96579 10.0573 7.96579 10.4969C7.96579 10.9541 7.96579 11.4113 7.91304 11.8685C7.73719 13.4335 7.19207 14.9106 6.01392 15.9481C7.06898 16.0184 9.72423 16.0184 10.7793 15.9481C9.61873 14.9106 9.05602 13.4335 8.89776 11.8685C8.84501 11.4113 8.84501 10.9541 8.84501 10.4969C8.84501 10.0397 9.02086 9.38907 9.02086 8.94946H7.78994Z" fill="white" fill-opacity="0.5"/>
<path d="M8.10627 10.075C7.66666 10.1454 7.40289 10.5674 6.59401 11.4466C5.87305 12.2379 5.15208 13.082 3.49915 13.2754C2.65509 13.3809 1.54727 12.9237 1.03732 12.2555C0.597713 11.6752 0.369115 10.9894 0.19327 10.286C-0.158419 8.98478 -0.0353275 7.70112 0.615297 6.50538C1.24834 5.32722 2.97161 4.81727 4.04426 5.45031C4.60697 5.78441 4.8004 6.20644 5.32793 6.29436C5.4686 6.32953 5.60928 6.17127 5.57411 6.01301C5.3631 5.22171 4.8004 5.1162 4.53663 4.18423C4.22011 3.05882 4.04426 2.1796 5.64445 0.772846C6.87536 -0.299805 9.84713 -0.211883 11.1484 0.772846C12.4672 1.77516 12.5903 2.68955 12.2738 3.79737C12.0276 4.69418 11.5352 5.09862 11.2891 5.83717C11.2011 6.10093 11.4473 6.34712 11.6935 6.24161C12.0804 6.08335 12.2914 5.73166 12.7837 5.45031C13.8564 4.81727 15.5621 5.32722 16.2127 6.50538C16.8633 7.68353 16.9864 8.98478 16.6347 10.286C16.4589 10.9718 16.2127 11.6752 15.7907 12.2555C15.2807 12.9413 14.1553 13.3809 13.3289 13.2754C11.6583 13.082 10.9374 12.2379 10.2164 11.4466C9.40752 10.5674 9.16134 10.1454 8.70414 10.075H8.10627Z" fill="white" fill-opacity="0.5"/>
</svg>
