<svg width="40" height="50" viewBox="0 0 40 50" fill="none" xmlns="http://www.w3.org/2000/svg">
<g clip-path="url(#clip0_1094_63)">
<path d="M39.8899 25.0015C39.8899 24.9985 39.8929 24.9985 39.8899 25.0015L39.8839 24.9985C28.9703 18.9445 20.2293 0.601793 19.9495 0.0150448V0C19.9495 0 19.9464 0.00300897 19.9464 0.00601793C19.9464 0.00300897 19.9434 0 19.9434 0L19.9404 0.0150448C19.6636 0.601793 10.9195 18.9445 0.0090269 24.9985H0C0.00300897 24.9985 0.00300897 24.9985 0.00300897 25.0015C0.00300897 25.0015 0.00300897 25.0015 0 25.0045H0.0090269C10.9195 31.0555 19.6636 49.3982 19.9434 49.985L19.9464 50C19.9464 50 19.9464 49.997 19.9495 49.991C19.9495 49.994 19.9525 50 19.9525 50V49.985C20.2323 49.3982 28.9733 31.0555 39.8869 25.0045L39.8899 25.0015C39.8899 25.0015 39.8929 25.0015 39.8899 25.0015Z" fill="#E51041"/>
</g>
<defs>
<clipPath id="clip0_1094_63">
<rect width="39.8929" height="50" fill="white"/>
</clipPath>
</defs>
</svg>
