<svg width="43" height="50" viewBox="0 0 43 50" fill="none" xmlns="http://www.w3.org/2000/svg">
<g clip-path="url(#clip0_328_10658)">
<path d="M21.0666 30.9062C20.1274 42.1344 13.7969 49.9941 13.7969 49.9941H21.0666H28.3363C28.3363 49.9972 22.0058 42.1344 21.0666 30.9062Z" fill="#E51041"/>
<path d="M31.6045 18.1999C30.1595 18.1999 28.7809 18.4949 27.5286 19.0217C27.4985 18.9886 27.4654 18.9585 27.4353 18.9223C29.9669 16.9988 31.6014 13.9585 31.6014 10.5328C31.6014 4.71403 26.8844 0 21.0656 0C15.2499 0 10.5358 4.71403 10.5358 10.5328C10.5358 14.1963 12.4082 17.4262 15.2498 19.3137C13.832 18.6002 12.2306 18.1999 10.5358 18.1999C4.71704 18.1999 0 22.9169 0 28.7357C0 34.5545 4.71704 39.2685 10.5358 39.2685C16.2011 39.2685 20.8188 34.7953 21.0566 29.1933C21.0656 29.1993 21.0716 29.2023 21.0807 29.2083C21.3275 34.8043 25.9452 39.2685 31.6045 39.2685C37.4202 39.2685 42.1373 34.5515 42.1373 28.7357C42.1343 22.9139 37.4202 18.1999 31.6045 18.1999Z" fill="#E51041"/>
</g>
<defs>
<clipPath id="clip0_328_10658">
<rect width="42.1343" height="50" fill="white"/>
</clipPath>
</defs>
</svg>
