<svg width="48" height="50" viewBox="0 0 48 50" fill="none" xmlns="http://www.w3.org/2000/svg">
<g clip-path="url(#clip0_328_10653)">
<path d="M23.5981 30.375C22.6326 41.9173 16.125 50 16.125 50H23.5981H31.0712C31.0712 50 24.5666 41.9173 23.5981 30.375Z" fill="#E51041"/>
<path d="M37.5546 13.269C28.2991 6.87276 23.7255 0.182572 23.6048 0.00928333V0L23.6017 0.00309444V0V0.00928333C23.481 0.182572 18.9075 6.87276 9.65197 13.269C0.272718 19.7518 -1.86554 27.8345 1.49193 33.9368C4.8463 40.0359 18.2638 43.0097 23.6017 30.8918C28.9427 43.0097 42.3602 40.0359 45.7146 33.9368C49.0721 27.8345 46.9338 19.7518 37.5546 13.269Z" fill="#E51041"/>
</g>
<defs>
<clipPath id="clip0_328_10653">
<rect width="47.2057" height="50" fill="white"/>
</clipPath>
</defs>
</svg>
