<svg width="30" height="30" viewBox="0 0 30 30" fill="none" xmlns="http://www.w3.org/2000/svg">
<path d="M13.8873 16.7784C13.8873 17.6357 14.2008 18.8556 14.2008 19.6799C14.2008 20.5372 14.2008 21.3944 14.1068 22.2517C13.7933 25.1861 12.8214 27.9557 10.7209 29.901C12.602 30.0329 17.3359 30.0329 19.2169 29.901C17.1478 27.9557 16.1446 25.1861 15.8624 22.2517C15.7684 21.3944 15.7684 20.5372 15.7684 19.6799C15.7684 18.8227 16.0819 17.6027 16.0819 16.7784H13.8873Z" fill="white" fill-opacity="0.2"/>
<path d="M14.4514 18.8891C13.6676 19.021 13.1974 19.8123 11.7552 21.4609C10.4699 22.9446 9.18451 24.5272 6.23757 24.8899C4.73275 25.0877 2.75768 24.2305 1.84852 22.9776C1.06476 21.8895 0.657205 20.6036 0.343701 19.2848C-0.283307 16.8449 -0.063854 14.438 1.09611 12.1959C2.22472 9.98686 5.29706 9.03069 7.20943 10.2177C8.21264 10.8441 8.5575 11.6354 9.49801 11.8003C9.74881 11.8662 9.99962 11.5695 9.93691 11.2727C9.56071 9.78903 8.5575 9.59121 8.08724 7.84372C7.52294 5.73356 7.20943 4.08499 10.0623 1.44728C12.2568 -0.563975 17.5551 -0.399118 19.875 1.44728C22.2263 3.32665 22.4457 5.04116 21.8814 7.11835C21.4425 8.79989 20.5647 9.55823 20.1258 10.943C19.969 11.4376 20.4079 11.8992 20.8468 11.7014C21.5366 11.4046 21.9128 10.7452 22.7906 10.2177C24.7029 9.03069 27.7439 9.98686 28.9039 12.1959C30.0639 14.405 30.2833 16.8449 29.6563 19.2848C29.3428 20.5707 28.9039 21.8895 28.1515 22.9776C27.2423 24.2635 25.2359 25.0877 23.7624 24.8899C20.7841 24.5272 19.4988 22.9446 18.2134 21.4609C16.7713 19.8123 16.3324 19.021 15.5173 18.8891H14.4514Z" fill="white" fill-opacity="0.2"/>
</svg>
