<svg width="60" height="66" viewBox="0 0 60 66" fill="none" xmlns="http://www.w3.org/2000/svg">
<path d="M34.586 65.4518H22.5699C21.129 65.4518 19.8602 64.5163 19.4247 63.1453C18.9946 61.7743 19.5054 60.2797 20.6882 59.4571C21.2527 59.0647 21.9731 57.9733 22.7258 55.3174C20.6452 56.0915 18.3441 56.5163 15.9355 56.5163C7.15054 56.5109 0 49.3604 0 40.5754C0 31.0754 6.81183 24.7851 14.7043 17.5055C23.3333 9.53778 25.543 4.84423 25.5645 4.80122C26.086 3.59692 27.2581 2.84961 28.5753 2.84961C29.8871 2.84961 31.086 3.62918 31.6075 4.83348C31.6129 4.84423 33.8226 9.53778 42.4516 17.5055C50.3387 24.7905 57.1559 31.0754 57.1559 40.5808C57.1559 49.3657 50.0054 56.5163 41.2204 56.5163C38.8172 56.5163 36.5108 56.0969 34.4355 55.3227C35.1882 57.9786 35.9086 59.07 36.4677 59.4625C37.6505 60.2851 38.1613 61.7797 37.7312 63.1507C37.2957 64.5163 36.0269 65.4518 34.586 65.4518ZM28.4946 58.8657H28.6613C28.6344 58.7905 28.6075 58.7098 28.5753 58.6292C28.5484 58.7098 28.5215 58.7851 28.4946 58.8657ZM29.5645 44.1829C30.6989 44.1829 31.7849 44.769 32.3925 45.7905C33.914 48.3389 37.2957 49.9249 41.2204 49.9249C46.3763 49.9249 50.5699 45.7313 50.5699 40.5754C50.5699 34.2797 45.7903 29.5432 37.9839 22.3442C33.4301 18.1399 30.4677 14.7206 28.5806 12.2206C26.6936 14.7206 23.7312 18.1399 19.1774 22.3442C11.3763 29.5485 6.5914 34.2797 6.5914 40.5754C6.5914 45.7313 10.7849 49.9249 15.9409 49.9249C19.8602 49.9249 23.2473 48.3389 24.7688 45.7905C25.5538 44.4786 27.1344 43.8819 28.586 44.3389C28.9032 44.2313 29.2366 44.1829 29.5645 44.1829Z" fill="url(#paint0_linear_916_1395)"/>
<path d="M35.1558 64.8819H23.1397C21.6989 64.8819 20.43 63.9465 19.9946 62.5755C19.5644 61.2045 20.0752 59.7099 21.258 58.8873C21.8225 58.4948 22.5429 57.4034 23.2956 54.7475C21.215 55.5217 18.9139 55.9465 16.5053 55.9465C7.72036 55.9465 0.569824 48.7959 0.569824 40.011C0.569824 30.511 7.38165 24.2206 15.2741 16.9357C23.9032 8.96796 26.1128 4.27441 26.1343 4.2314C26.6558 3.0271 27.8279 2.27979 29.1451 2.27979C30.4569 2.27979 31.6558 3.05936 32.1774 4.26366C32.1827 4.27441 34.3924 8.96796 43.0214 16.9357C50.9085 24.2206 57.7257 30.5056 57.7257 40.011C57.7257 48.7959 50.5752 55.9465 41.7903 55.9465C39.387 55.9465 37.0806 55.5271 35.0053 54.7529C35.758 57.4088 36.4784 58.5002 37.0376 58.8927C38.2204 59.7153 38.7311 61.2099 38.301 62.5809C37.8655 63.9465 36.5913 64.8819 35.1558 64.8819ZM29.0644 58.2959H29.2311C29.2042 58.2206 29.1774 58.14 29.1451 58.0594C29.1182 58.14 29.0913 58.2153 29.0644 58.2959ZM30.1343 43.6131C31.2687 43.6131 32.3548 44.1991 32.9623 45.2206C34.4838 47.769 37.8655 49.3551 41.7903 49.3551C46.9462 49.3551 51.1397 45.1615 51.1397 40.0056C51.1397 33.7099 46.3601 28.9733 38.5537 21.7744C33.9999 17.5701 31.0376 14.1508 29.1505 11.6508C27.2634 14.1508 24.301 17.5701 19.7472 21.7744C11.9408 28.9787 7.15585 33.7099 7.15585 40.0056C7.15585 45.1615 11.3494 49.3551 16.5053 49.3551C20.4247 49.3551 23.8118 47.769 25.3333 45.2206C26.1182 43.9088 27.6989 43.312 29.1505 43.769C29.4731 43.6615 29.8064 43.6131 30.1343 43.6131Z" fill="url(#paint1_linear_916_1395)"/>
<path d="M35.7259 64.3116H23.7044C22.2636 64.3116 20.9947 63.3761 20.5593 62.0052C20.1291 60.6342 20.6399 59.1396 21.8227 58.317C22.3872 57.9245 23.1076 56.8331 23.8603 54.1772C21.7797 54.9514 19.4786 55.3761 17.07 55.3761C8.28506 55.3761 1.13452 48.2256 1.13452 39.4407C1.13452 29.9407 7.94635 23.6503 15.8388 16.3654C24.4732 8.39765 26.6775 3.70947 26.699 3.66109C27.2205 2.45678 28.3926 1.70947 29.7098 1.70947C31.0216 1.70947 32.2205 2.48904 32.7421 3.69872C32.7474 3.70947 34.9571 8.40302 43.5861 16.3708C51.4732 23.6557 58.2904 29.9407 58.2904 39.446C58.2904 48.231 51.1399 55.3815 42.355 55.3815C39.9517 55.3815 37.6453 54.9622 35.57 54.188C36.3227 56.8439 37.0431 57.9353 37.6023 58.3278C38.7851 59.1503 39.2958 60.645 38.8657 62.0159C38.4356 63.3761 37.1614 64.3116 35.7259 64.3116ZM29.6345 57.7256H29.8012C29.7743 57.6503 29.7474 57.5697 29.7152 57.489C29.6883 57.5697 29.6614 57.6503 29.6345 57.7256ZM30.7044 43.0428C31.8388 43.0428 32.9248 43.6288 33.5324 44.6503C35.0539 47.1987 38.4356 48.7847 42.3603 48.7847C47.5162 48.7847 51.7098 44.5912 51.7098 39.4353C51.7098 33.1396 46.9302 28.403 39.1238 21.2041C34.57 16.9998 31.6076 13.5804 29.7205 11.0804C27.8334 13.5804 24.8711 16.9998 20.3173 21.2041C12.5162 28.4084 7.7313 33.1396 7.7313 39.4353C7.7313 44.5912 11.9248 48.7847 17.0808 48.7847C21.0001 48.7847 24.3872 47.1987 25.9087 44.6503C26.6937 43.3385 28.2743 42.7364 29.7259 43.1987C30.0431 43.0912 30.3765 43.0428 30.7044 43.0428Z" fill="url(#paint2_linear_916_1395)"/>
<path d="M36.2904 63.7418H24.2742C22.8334 63.7418 21.5646 62.8063 21.1291 61.4353C20.699 60.0644 21.2097 58.5698 22.3925 57.7472C22.957 57.3547 23.6775 56.2633 24.4302 53.6074C22.3495 54.3816 20.0484 54.8063 17.6398 54.8063C8.85488 54.8063 1.70435 47.6558 1.70435 38.8708C1.70435 29.3708 8.51617 23.0805 16.4086 15.7956C25.0431 7.82782 27.2474 3.13965 27.2689 3.09126C27.7904 1.88696 28.9624 1.13965 30.2796 1.13965C31.5914 1.13965 32.7904 1.91922 33.3119 3.1289C33.3173 3.13965 35.5269 7.8332 44.156 15.8009C52.0431 23.0859 58.8603 29.3708 58.8603 38.8762C58.8603 47.6612 51.7097 54.8117 42.9248 54.8117C40.5215 54.8117 38.2151 54.3923 36.1398 53.6181C36.8925 56.2741 37.6129 57.3655 38.1721 57.7579C39.3549 58.5805 39.8656 60.0751 39.4355 61.4461C39.0054 62.8117 37.7312 63.7418 36.2904 63.7418ZM30.199 57.1558H30.3656C30.3388 57.0805 30.3119 56.9999 30.2796 56.9192C30.2581 56.9999 30.2312 57.0805 30.199 57.1558ZM31.2689 42.473C32.4033 42.473 33.4893 43.059 34.0968 44.0805C35.6183 46.6289 39 48.2149 42.9248 48.2149C48.0807 48.2149 52.2742 44.0214 52.2742 38.8655C52.2742 32.5698 47.4947 27.8332 39.6882 20.6343C35.1345 16.43 32.1721 13.0106 30.285 10.5106C28.3979 13.0106 25.4355 16.43 20.8818 20.6343C13.0807 27.8386 8.29574 32.5698 8.29574 38.8655C8.29574 44.0214 12.4893 48.2149 17.6452 48.2149C21.5646 48.2149 24.9517 46.6289 26.4732 44.0805C27.2581 42.7687 28.8388 42.1719 30.2904 42.6289C30.6129 42.5267 30.9463 42.473 31.2689 42.473Z" fill="url(#paint3_linear_916_1395)"/>
<path d="M36.8602 63.1774H24.8441C23.4032 63.1774 22.1344 62.2419 21.6989 60.8709C21.2688 59.4999 21.7795 58.0053 22.9623 57.1827C23.5269 56.7903 24.2473 55.6989 25 53.0429C22.9193 53.8171 20.6183 54.2419 18.2097 54.2419C9.42471 54.2419 2.27417 47.0913 2.27417 38.3064C2.27417 28.8064 9.086 22.5161 16.9785 15.2311C25.6075 7.258 27.8172 2.56982 27.8387 2.52144C28.3602 1.31714 29.5322 0.569824 30.8494 0.569824C32.1613 0.569824 33.3602 1.34939 33.8817 2.55907C33.8871 2.56982 36.0968 7.26337 44.7258 15.2311C52.6129 22.5161 59.4301 28.801 59.4301 38.3064C59.4301 47.0913 52.2795 54.2419 43.4946 54.2419C41.0914 54.2419 38.7849 53.8225 36.7097 53.0429C37.4623 55.6989 38.1828 56.7903 38.7419 57.1827C39.9247 58.0053 40.4355 59.4999 40.0054 60.8709C39.5752 62.2419 38.301 63.1774 36.8602 63.1774ZM30.7688 56.586H30.9355C30.9086 56.5107 30.8817 56.43 30.8494 56.3494C30.8279 56.43 30.8011 56.5107 30.7688 56.586ZM31.8387 41.9085C32.9731 41.9085 34.0591 42.4946 34.6666 43.5161C36.1882 46.0645 39.5699 47.6505 43.4946 47.6505C48.6505 47.6505 52.8441 43.4569 52.8441 38.301C52.8441 32.0053 48.0645 27.2688 40.258 20.0698C35.7043 15.8601 32.7419 12.4462 30.8548 9.94617C28.9677 12.4462 26.0054 15.8655 21.4516 20.0698C13.6505 27.2741 8.86557 32.0053 8.86557 38.301C8.86557 43.4569 13.0591 47.6505 18.215 47.6505C22.1344 47.6505 25.5215 46.0645 27.043 43.5161C27.8279 42.2042 29.414 41.6075 30.8602 42.0644C31.1828 41.9569 31.5107 41.9085 31.8387 41.9085Z" fill="url(#paint4_linear_916_1395)"/>
<path d="M37.43 62.6075H25.4139C23.973 62.6075 22.7042 61.672 22.2687 60.3011C21.8386 58.9301 22.3494 57.4355 23.5322 56.6129C24.0967 56.2204 24.8171 55.129 25.5698 52.4731C23.4892 53.2473 21.1881 53.672 18.7795 53.672C9.99453 53.672 2.84399 46.5215 2.84399 37.7366C2.84399 28.2366 9.65582 21.9462 17.5483 14.6613C26.1773 6.69355 28.387 2 28.4085 1.95161C28.93 0.747312 30.1021 0 31.4193 0C32.7311 0 33.93 0.77957 34.4515 1.98925C34.4569 2 36.6666 6.69355 45.2956 14.6613C53.1827 21.9462 59.9999 28.2312 59.9999 37.7366C59.9999 46.5215 52.8494 53.672 44.0644 53.672C41.6612 53.672 39.3547 53.2527 37.2795 52.4731C38.0322 55.129 38.7526 56.2204 39.3117 56.6129C40.4945 57.4355 41.0053 58.9301 40.5752 60.3011C40.1451 61.672 38.8709 62.6075 37.43 62.6075ZM31.3386 56.0161H31.5053C31.4784 55.9409 31.4515 55.8602 31.4193 55.7796C31.3978 55.8602 31.3655 55.9409 31.3386 56.0161ZM32.4085 41.3387C33.5429 41.3387 34.6289 41.9247 35.2365 42.9462C36.758 45.4946 40.1397 47.0806 44.0644 47.0806C49.2203 47.0806 53.4139 42.8871 53.4139 37.7312C53.4139 31.4355 48.6343 26.6989 40.8279 19.5C36.2741 15.2957 33.3117 11.8763 31.4246 9.37634C29.5375 11.8763 26.5752 15.2957 22.0214 19.5C14.2203 26.7043 9.43539 31.4355 9.43539 37.7312C9.43539 42.8871 13.6289 47.0806 18.7849 47.0806C22.7042 47.0806 26.0913 45.4946 27.6128 42.9462C28.3978 41.6344 29.9784 41.0323 31.43 41.4946C31.7526 41.3871 32.0806 41.3387 32.4085 41.3387Z" fill="url(#paint5_linear_916_1395)"/>
<path d="M37.4302 61.5053H25.414C24.457 61.5053 23.6076 60.8816 23.3173 59.9677C23.0323 59.0537 23.371 58.0537 24.156 57.5107C25.5269 56.5537 26.5108 53.5375 27.1829 50.5375C24.7635 51.844 21.8603 52.5698 18.7796 52.5698C10.5968 52.5698 3.94092 45.9139 3.94092 37.7311C3.94092 28.7096 10.5915 22.5752 18.2904 15.4676C27.156 7.28485 29.3872 2.45689 29.4087 2.40851C29.7635 1.61819 30.5538 1.09668 31.4194 1.09668C32.2958 1.09668 33.0968 1.61819 33.4463 2.41926C33.4624 2.45152 35.6936 7.27948 44.5538 15.4623C52.2527 22.5698 58.9033 28.7096 58.9033 37.7257C58.9033 45.9085 52.2474 52.5644 44.0646 52.5644C40.9839 52.5644 38.0807 51.8386 35.6614 50.5375C36.3334 53.5375 37.3119 56.5537 38.6882 57.5107C39.4786 58.059 39.8173 59.0537 39.5269 59.9677C39.2366 60.887 38.3925 61.5053 37.4302 61.5053ZM29.6936 57.1182H33.1452C32.4302 55.5537 31.8764 53.715 31.4194 51.715C30.9678 53.7096 30.4087 55.5537 29.6936 57.1182ZM32.4087 42.4354C33.1667 42.4354 33.8872 42.8279 34.2958 43.5053C36.0162 46.387 39.7581 48.1773 44.0646 48.1773C49.8226 48.1773 54.5108 43.4892 54.5108 37.7311C54.5108 30.6343 48.8011 25.3655 41.5753 18.6935C36.285 13.8117 33.1775 9.99453 31.4248 7.49991C29.6721 9.99453 26.5646 13.8117 21.2743 18.6935C14.0431 25.3655 8.33339 30.6343 8.33339 37.7311C8.33339 43.4892 13.0216 48.1773 18.7796 48.1773C23.0861 48.1773 26.828 46.387 28.5484 43.5053C29.0861 42.6074 30.1775 42.215 31.1613 42.559C31.2527 42.5913 31.3388 42.6289 31.4194 42.672C31.5001 42.6289 31.5861 42.5967 31.6775 42.5644C31.9194 42.473 32.1667 42.4354 32.4087 42.4354Z" fill="url(#paint6_linear_916_1395)"/>
<path d="M43.0644 17.075C33.6181 8.35993 31.43 3.29541 31.43 3.29541H31.4192C31.4192 3.29541 29.231 8.35993 19.7848 17.0804C12.2095 24.0696 6.13965 29.7363 6.13965 37.7309C6.13965 44.7148 11.8009 50.3707 18.7794 50.3707C23.6665 50.3707 28.2364 48.3062 30.4354 44.6287C29.7364 49.6341 28.5214 57.1503 25.4138 59.3115H37.43C34.3224 57.1503 33.1074 49.6395 32.4085 44.6287C34.6074 48.3062 39.1773 50.3707 44.0644 50.3707C51.0483 50.3707 56.7042 44.7094 56.7042 37.7309C56.7042 29.7363 50.6343 24.0696 43.0644 17.075Z" fill="black"/>
<defs>
<linearGradient id="paint0_linear_916_1395" x1="28.5767" y1="2.84585" x2="28.5767" y2="65.4514" gradientUnits="userSpaceOnUse">
<stop stop-color="#D59647"/>
<stop offset="0.0905" stop-color="#68421D"/>
<stop offset="0.2927" stop-color="#D59647"/>
<stop offset="0.3254" stop-color="#D69A4F"/>
<stop offset="0.5446" stop-color="#E0B580"/>
<stop offset="0.6327" stop-color="#DCA96B"/>
<stop offset="0.7959" stop-color="#D59647"/>
<stop offset="0.8899" stop-color="#8C5E2B"/>
<stop offset="0.9422" stop-color="#68421D"/>
<stop offset="1" stop-color="#BA813D"/>
</linearGradient>
<linearGradient id="paint1_linear_916_1395" x1="29.1457" y1="2.27677" x2="29.1457" y2="64.8823" gradientUnits="userSpaceOnUse">
<stop stop-color="#D59647"/>
<stop offset="0.0905" stop-color="#68421D"/>
<stop offset="0.2927" stop-color="#D59647"/>
<stop offset="0.3254" stop-color="#D69A4F"/>
<stop offset="0.5446" stop-color="#E0B580"/>
<stop offset="0.6327" stop-color="#DCA96B"/>
<stop offset="0.7959" stop-color="#D59647"/>
<stop offset="0.8899" stop-color="#8C5E2B"/>
<stop offset="0.9422" stop-color="#68421D"/>
<stop offset="1" stop-color="#BA813D"/>
</linearGradient>
<linearGradient id="paint2_linear_916_1395" x1="29.715" y1="1.70721" x2="29.715" y2="64.3128" gradientUnits="userSpaceOnUse">
<stop stop-color="#D59647"/>
<stop offset="0.0905" stop-color="#68421D"/>
<stop offset="0.2927" stop-color="#D59647"/>
<stop offset="0.3254" stop-color="#D69A4F"/>
<stop offset="0.5446" stop-color="#E0B580"/>
<stop offset="0.6327" stop-color="#DCA96B"/>
<stop offset="0.7959" stop-color="#D59647"/>
<stop offset="0.8899" stop-color="#8C5E2B"/>
<stop offset="0.9422" stop-color="#68421D"/>
<stop offset="1" stop-color="#BA813D"/>
</linearGradient>
<linearGradient id="paint3_linear_916_1395" x1="30.2841" y1="1.13814" x2="30.2841" y2="63.7437" gradientUnits="userSpaceOnUse">
<stop stop-color="#D59647"/>
<stop offset="0.0905" stop-color="#68421D"/>
<stop offset="0.2927" stop-color="#D59647"/>
<stop offset="0.3254" stop-color="#D69A4F"/>
<stop offset="0.5446" stop-color="#E0B580"/>
<stop offset="0.6327" stop-color="#DCA96B"/>
<stop offset="0.7959" stop-color="#D59647"/>
<stop offset="0.8899" stop-color="#8C5E2B"/>
<stop offset="0.9422" stop-color="#68421D"/>
<stop offset="1" stop-color="#BA813D"/>
</linearGradient>
<linearGradient id="paint4_linear_916_1395" x1="30.8531" y1="0.569072" x2="30.8531" y2="63.1749" gradientUnits="userSpaceOnUse">
<stop stop-color="#D59647"/>
<stop offset="0.0905" stop-color="#68421D"/>
<stop offset="0.2927" stop-color="#D59647"/>
<stop offset="0.3254" stop-color="#D69A4F"/>
<stop offset="0.5446" stop-color="#E0B580"/>
<stop offset="0.6327" stop-color="#DCA96B"/>
<stop offset="0.7959" stop-color="#D59647"/>
<stop offset="0.8899" stop-color="#8C5E2B"/>
<stop offset="0.9422" stop-color="#68421D"/>
<stop offset="1" stop-color="#BA813D"/>
</linearGradient>
<linearGradient id="paint5_linear_916_1395" x1="31.4222" y1="0" x2="31.4222" y2="62.6058" gradientUnits="userSpaceOnUse">
<stop stop-color="#D59647"/>
<stop offset="0.0905" stop-color="#68421D"/>
<stop offset="0.2927" stop-color="#D59647"/>
<stop offset="0.3254" stop-color="#D69A4F"/>
<stop offset="0.5446" stop-color="#E0B580"/>
<stop offset="0.6327" stop-color="#DCA96B"/>
<stop offset="0.7959" stop-color="#D59647"/>
<stop offset="0.8899" stop-color="#8C5E2B"/>
<stop offset="0.9422" stop-color="#68421D"/>
<stop offset="1" stop-color="#BA813D"/>
</linearGradient>
<linearGradient id="paint6_linear_916_1395" x1="49.1113" y1="19.2205" x2="10.8376" y2="51.3359" gradientUnits="userSpaceOnUse">
<stop stop-color="#D59647"/>
<stop offset="0.0905" stop-color="#68421D"/>
<stop offset="0.2927" stop-color="#D59647"/>
<stop offset="0.3254" stop-color="#D69A4F"/>
<stop offset="0.5446" stop-color="#E0B580"/>
<stop offset="0.6327" stop-color="#DCA96B"/>
<stop offset="0.7959" stop-color="#D59647"/>
<stop offset="0.8899" stop-color="#8C5E2B"/>
<stop offset="0.9422" stop-color="#68421D"/>
<stop offset="1" stop-color="#BA813D"/>
</linearGradient>
</defs>
</svg>
