<svg width="40" height="37" viewBox="0 0 40 37" fill="none" xmlns="http://www.w3.org/2000/svg">
<path d="M19.0868 36.6976C18.4884 36.6976 17.9177 36.4451 17.5164 35.9989C16.6724 35.065 14.1024 32.2217 9.37738 28.0778C4.43445 23.7436 0 19.3507 0 13.2559C0 5.9747 5.27499 2.0003 10.4877 1.84118C13.9813 1.72012 17.1152 2.99304 19.0834 5.09611C21.0515 2.99649 24.1785 1.72704 27.6825 1.84118C32.8917 2.00376 38.1667 5.97816 38.1667 13.2594C38.1667 19.3542 33.7323 23.7471 28.7928 28.0812C24.0436 32.2459 21.4943 35.0754 20.6538 36.0024C20.256 36.4417 19.6852 36.6976 19.0868 36.6976ZM10.9028 6.07155C10.8094 6.07155 10.7195 6.07155 10.6261 6.07501C7.44379 6.17532 4.23729 8.43406 4.23729 13.2559C4.23729 17.5831 7.82774 21.0837 12.1653 24.892C15.3857 27.718 17.6548 29.9699 19.0834 31.4642C20.5085 29.9768 22.7707 27.725 26.0014 24.892C30.339 21.0871 33.9329 17.5831 33.9329 13.2559C33.9329 8.4306 30.7298 6.17187 27.551 6.07501C27.5476 6.07501 27.5476 6.07501 27.5441 6.07501C24.6766 5.97124 21.5116 7.41711 21.1864 10.001C21.0515 11.0594 20.1522 11.855 19.0834 11.855C18.0145 11.855 17.1152 11.0594 16.9803 10.001C16.669 7.50013 13.6942 6.07155 10.9028 6.07155Z" fill="url(#paint0_linear_916_1413)"/>
<path d="M19.4533 36.331C18.8549 36.331 18.2841 36.0785 17.8829 35.6323C17.0389 34.6983 14.4688 31.855 9.74383 27.7111C4.80091 23.377 0.366455 18.984 0.366455 12.8893C0.366455 5.60804 5.64145 1.63364 10.8542 1.47107C14.3547 1.35 17.4816 2.62292 19.4533 4.726C21.4215 2.62638 24.5553 1.35692 28.0524 1.47107C33.2616 1.63364 38.5366 5.60804 38.5366 12.8893C38.5366 18.984 34.1022 23.377 29.1627 27.7111C24.4135 31.8758 21.8642 34.7018 21.0237 35.6323C20.6224 36.0785 20.0517 36.331 19.4533 36.331ZM11.2693 5.7049C11.1759 5.7049 11.0859 5.7049 10.9925 5.70836C7.81025 5.80867 4.60374 8.0674 4.60374 12.8893C4.60374 17.2165 8.1942 20.717 12.5318 24.5254C15.7521 27.3514 18.0212 29.6032 19.4498 31.0975C20.8749 29.6101 23.1371 27.3583 26.3678 24.5254C30.7054 20.7205 34.2959 17.2165 34.2959 12.8893C34.2959 8.06394 31.0928 5.80521 27.914 5.70836C27.9106 5.70836 27.9106 5.70836 27.9071 5.70836C25.0361 5.60804 21.8746 7.05045 21.5494 9.63433C21.4145 10.6928 20.5152 11.4884 19.4464 11.4884C18.3775 11.4884 17.4782 10.6928 17.3433 9.63433C17.0354 7.13347 14.0607 5.7049 11.2693 5.7049Z" fill="url(#paint1_linear_916_1413)"/>
<path d="M19.8168 35.9642C19.2184 35.9642 18.6476 35.7117 18.2464 35.2655C17.4024 34.3316 14.8323 31.4883 10.1073 27.3444C5.16439 23.0137 0.733398 18.6173 0.733398 12.526C0.733398 5.24476 6.00839 1.27036 11.2211 1.10779C14.7216 0.986721 17.8486 2.25964 19.8202 4.36272C21.7884 2.2631 24.9153 0.993639 28.4193 1.10779C33.6286 1.27036 38.9036 5.24476 38.9036 12.526C38.9036 18.6208 34.4691 23.0137 29.5297 27.3478C24.777 31.5159 22.2312 34.342 21.3906 35.269C20.9894 35.7117 20.4186 35.9642 19.8168 35.9642C19.8202 35.9642 19.8168 35.9642 19.8168 35.9642ZM11.6362 5.33816C11.5428 5.33816 11.4529 5.33816 11.3595 5.34162C8.17719 5.44193 4.97069 7.70066 4.97069 12.5225C4.97069 16.8497 8.56114 20.3503 12.8987 24.1586C16.1191 26.9846 18.3882 29.2365 19.8168 30.7308C21.2419 29.2434 23.5006 26.995 26.7348 24.1586C31.0724 20.3537 34.6628 16.8497 34.6628 12.5225C34.6628 7.6972 31.4598 5.43847 28.281 5.34162C28.2775 5.34162 28.2775 5.34162 28.274 5.34162C25.4065 5.2413 22.2415 6.68371 21.9164 9.26759C21.7815 10.326 20.8821 11.1216 19.8133 11.1216C18.7445 11.1216 17.8451 10.326 17.7102 9.26759C17.3989 6.77019 14.4276 5.33816 11.6362 5.33816Z" fill="url(#paint2_linear_916_1413)"/>
<path d="M20.1832 35.5978C19.5848 35.5978 19.0141 35.3453 18.6128 34.8991C17.7688 33.9651 15.1988 31.1218 10.4738 26.9779C5.53085 22.6472 1.09985 18.2543 1.09985 12.1595C1.09985 4.87831 6.37485 0.903904 11.5876 0.741331C15.0846 0.620266 18.215 1.89318 20.1867 3.99626C22.1549 1.89664 25.2818 0.627184 28.7858 0.741331C33.995 0.903904 39.27 4.87831 39.27 12.1595C39.27 18.2543 34.8356 22.6472 29.8961 26.9814C25.1434 31.1495 22.5941 33.9755 21.7571 34.9025C21.3558 35.3453 20.7851 35.5978 20.1832 35.5978ZM12.0027 4.9717C11.9093 4.9717 11.8193 4.9717 11.7259 4.97516C8.54365 5.07547 5.33714 7.33421 5.33714 12.1561C5.33714 16.4833 8.92759 19.9838 13.2652 23.7922C16.4855 26.6182 18.7546 28.87 20.1832 30.3643C21.6083 28.8769 23.8671 26.6286 27.1012 23.7922C31.4388 19.9873 35.0293 16.4833 35.0293 12.1561C35.0293 7.33075 31.8262 5.07201 28.6474 4.97516C28.644 4.97516 28.644 4.97516 28.6405 4.97516C25.773 4.87139 22.608 6.31726 22.2828 8.90114C22.1479 9.95959 21.2486 10.7552 20.1798 10.7552C19.1109 10.7552 18.2116 9.95959 18.0767 8.90114C17.7654 6.40373 14.7941 4.9717 12.0027 4.9717Z" fill="url(#paint3_linear_916_1413)"/>
<path d="M20.55 35.2343C19.9515 35.2343 19.3808 34.9818 18.9796 34.5356C18.1356 33.6016 15.5621 30.7549 10.8405 26.6144C5.89759 22.2803 1.46313 17.8874 1.46313 11.7926C1.46313 4.51136 6.73813 0.536961 11.9509 0.374388C15.4479 0.253322 18.5783 1.52624 20.55 3.62932C22.5181 1.5297 25.6485 0.256781 29.1491 0.374388C34.3583 0.536961 39.6333 4.51136 39.6333 11.7926C39.6333 17.8874 35.1989 22.2803 30.2594 26.6144C25.5067 30.7826 22.9574 33.6086 22.1203 34.5356C21.7226 34.9783 21.1518 35.2343 20.55 35.2343ZM12.3659 4.60476C12.2725 4.60476 12.1826 4.60476 12.0892 4.60822C8.90693 4.70853 5.70042 6.96726 5.70042 11.7891C5.70042 16.1163 9.29088 19.6169 13.6285 23.4252C16.8488 26.2478 19.1179 28.5031 20.5465 29.9974C21.9716 28.51 24.2303 26.2616 27.4645 23.4252C31.8021 19.6203 35.3926 16.1163 35.3926 11.7891C35.3926 6.9638 32.1895 4.70507 29.0107 4.60822C29.0072 4.60822 29.0072 4.60822 29.0038 4.60822C26.1328 4.50791 22.9713 5.95031 22.6461 8.53419C22.5112 9.59265 21.6119 10.3882 20.543 10.3882C19.4742 10.3882 18.5749 9.59265 18.44 8.53419C18.1321 6.03679 15.1608 4.60476 12.3659 4.60476Z" fill="url(#paint4_linear_916_1413)"/>
<path d="M20.9167 34.8678C20.3182 34.8678 19.7475 34.6153 19.3463 34.1691C18.5023 33.2352 15.9288 30.3884 11.2072 26.248C6.26429 21.9138 1.82983 17.5209 1.82983 11.4261C1.82983 4.14491 7.10483 0.170506 12.3176 0.00793256C15.8146 -0.113133 18.945 1.15978 20.9167 3.26286C22.8848 1.16324 26.0118 -0.106215 29.5158 0.00793256C34.725 0.170506 40 4.14491 40 11.4261C40 17.5209 35.5656 21.9138 30.6261 26.248C25.8734 30.4161 23.3241 33.2421 22.487 34.1691C22.0893 34.6119 21.5185 34.8678 20.9167 34.8678ZM12.7326 4.2383C12.6392 4.2383 12.5493 4.2383 12.4559 4.24176C9.27362 4.34207 6.06712 6.60081 6.06712 11.4227C6.06712 15.7499 9.65758 19.2504 13.9952 23.0588C17.2155 25.8813 19.4846 28.1366 20.9132 29.6309C22.3383 28.1435 24.597 25.8952 27.8312 23.0588C32.1688 19.2539 35.7593 15.7499 35.7593 11.4227C35.7593 6.59735 32.5562 4.33861 29.3774 4.24176C29.3739 4.24176 29.3739 4.24176 29.3705 4.24176C26.503 4.14145 23.338 5.58386 23.0128 8.16774C22.8779 9.2262 21.9786 10.0218 20.9097 10.0218C19.8409 10.0218 18.9416 9.2262 18.8067 8.16774C18.4988 5.67033 15.5241 4.2383 12.7326 4.2383Z" fill="url(#paint5_linear_916_1413)"/>
<path d="M20.9166 34.1623C20.5188 34.1623 20.1348 33.9928 19.8685 33.6953C19.0176 32.751 16.4233 29.8835 11.6706 25.7154C6.67238 21.3328 2.5354 17.2339 2.5354 11.4262C2.5354 4.59464 7.46795 0.865827 12.3382 0.71363C15.9598 0.589106 19.1525 2.03843 20.9166 4.35251C22.6807 2.03843 25.8699 0.585647 29.4949 0.71363C34.3652 0.865827 39.2943 4.59464 39.2943 11.4262C39.2943 17.2339 35.1573 21.3328 30.1625 25.7154C25.3787 29.9111 22.8087 32.7579 21.9647 33.6953C21.6983 33.9928 21.3178 34.1588 20.9166 34.1623ZM12.7395 3.53272C12.6357 3.53272 12.5354 3.53618 12.4351 3.53964C9.02796 3.64687 5.36487 6.15811 5.36487 11.4262C5.36487 16.0474 9.06601 19.6725 13.5351 23.5915C17.1532 26.7634 19.5572 29.209 20.9166 30.6583C22.2691 29.2159 24.6661 26.7773 28.2981 23.5915C32.7672 19.669 36.4683 16.0474 36.4683 11.4262C36.4683 6.15811 32.8052 3.64341 29.405 3.53964H29.4015C26.2642 3.43241 22.7118 4.98897 22.3209 8.08132C22.231 8.78696 21.6326 9.31619 20.92 9.31619C20.2075 9.31619 19.6091 8.78696 19.5191 8.08132C19.1352 5.08582 15.8007 3.53272 12.7395 3.53272Z" fill="url(#paint6_linear_916_1413)"/>
<path d="M29.4466 2.12846C25.3511 1.98664 21.3802 4.2177 20.9166 7.90501C20.4497 4.21424 16.4787 1.98664 12.3867 2.12846C7.94881 2.26682 3.9502 5.61514 3.9502 11.4263C3.9502 16.6874 7.97302 20.5927 12.6012 24.6535C17.3158 28.7905 19.8928 31.6165 20.9166 32.7476C21.9405 31.6131 24.5175 28.7905 29.2286 24.6535C33.8568 20.5927 37.8796 16.6874 37.8796 11.4263C37.8831 5.61168 33.8845 2.26336 29.4466 2.12846Z" fill="black"/>
<defs>
<linearGradient id="paint0_linear_916_1413" x1="19.0849" y1="1.83143" x2="19.0849" y2="36.6977" gradientUnits="userSpaceOnUse">
<stop stop-color="#D59647"/>
<stop offset="0.0905" stop-color="#68421D"/>
<stop offset="0.2927" stop-color="#D59647"/>
<stop offset="0.3254" stop-color="#D69A4F"/>
<stop offset="0.5446" stop-color="#E0B580"/>
<stop offset="0.6327" stop-color="#DCA96B"/>
<stop offset="0.7959" stop-color="#D59647"/>
<stop offset="0.8899" stop-color="#8C5E2B"/>
<stop offset="0.9422" stop-color="#68421D"/>
<stop offset="1" stop-color="#BA813D"/>
</linearGradient>
<linearGradient id="paint1_linear_916_1413" x1="19.4508" y1="1.4656" x2="19.4508" y2="36.3316" gradientUnits="userSpaceOnUse">
<stop stop-color="#D59647"/>
<stop offset="0.0905" stop-color="#68421D"/>
<stop offset="0.2927" stop-color="#D59647"/>
<stop offset="0.3254" stop-color="#D69A4F"/>
<stop offset="0.5446" stop-color="#E0B580"/>
<stop offset="0.6327" stop-color="#DCA96B"/>
<stop offset="0.7959" stop-color="#D59647"/>
<stop offset="0.8899" stop-color="#8C5E2B"/>
<stop offset="0.9422" stop-color="#68421D"/>
<stop offset="1" stop-color="#BA813D"/>
</linearGradient>
<linearGradient id="paint2_linear_916_1413" x1="19.8173" y1="1.09935" x2="19.8173" y2="35.9653" gradientUnits="userSpaceOnUse">
<stop stop-color="#D59647"/>
<stop offset="0.0905" stop-color="#68421D"/>
<stop offset="0.2927" stop-color="#D59647"/>
<stop offset="0.3254" stop-color="#D69A4F"/>
<stop offset="0.5446" stop-color="#E0B580"/>
<stop offset="0.6327" stop-color="#DCA96B"/>
<stop offset="0.7959" stop-color="#D59647"/>
<stop offset="0.8899" stop-color="#8C5E2B"/>
<stop offset="0.9422" stop-color="#68421D"/>
<stop offset="1" stop-color="#BA813D"/>
</linearGradient>
<linearGradient id="paint3_linear_916_1413" x1="20.1833" y1="0.73341" x2="20.1833" y2="35.5993" gradientUnits="userSpaceOnUse">
<stop stop-color="#D59647"/>
<stop offset="0.0905" stop-color="#68421D"/>
<stop offset="0.2927" stop-color="#D59647"/>
<stop offset="0.3254" stop-color="#D69A4F"/>
<stop offset="0.5446" stop-color="#E0B580"/>
<stop offset="0.6327" stop-color="#DCA96B"/>
<stop offset="0.7959" stop-color="#D59647"/>
<stop offset="0.8899" stop-color="#8C5E2B"/>
<stop offset="0.9422" stop-color="#68421D"/>
<stop offset="1" stop-color="#BA813D"/>
</linearGradient>
<linearGradient id="paint4_linear_916_1413" x1="20.5495" y1="0.366951" x2="20.5495" y2="35.2329" gradientUnits="userSpaceOnUse">
<stop stop-color="#D59647"/>
<stop offset="0.0905" stop-color="#68421D"/>
<stop offset="0.2927" stop-color="#D59647"/>
<stop offset="0.3254" stop-color="#D69A4F"/>
<stop offset="0.5446" stop-color="#E0B580"/>
<stop offset="0.6327" stop-color="#DCA96B"/>
<stop offset="0.7959" stop-color="#D59647"/>
<stop offset="0.8899" stop-color="#8C5E2B"/>
<stop offset="0.9422" stop-color="#68421D"/>
<stop offset="1" stop-color="#BA813D"/>
</linearGradient>
<linearGradient id="paint5_linear_916_1413" x1="20.9157" y1="0.00101454" x2="20.9157" y2="34.8669" gradientUnits="userSpaceOnUse">
<stop stop-color="#D59647"/>
<stop offset="0.0905" stop-color="#68421D"/>
<stop offset="0.2927" stop-color="#D59647"/>
<stop offset="0.3254" stop-color="#D69A4F"/>
<stop offset="0.5446" stop-color="#E0B580"/>
<stop offset="0.6327" stop-color="#DCA96B"/>
<stop offset="0.7959" stop-color="#D59647"/>
<stop offset="0.8899" stop-color="#8C5E2B"/>
<stop offset="0.9422" stop-color="#68421D"/>
<stop offset="1" stop-color="#BA813D"/>
</linearGradient>
<linearGradient id="paint6_linear_916_1413" x1="34.4" y1="1.3247" x2="8.48345" y2="23.0713" gradientUnits="userSpaceOnUse">
<stop stop-color="#D59647"/>
<stop offset="0.0905" stop-color="#68421D"/>
<stop offset="0.2927" stop-color="#D59647"/>
<stop offset="0.3254" stop-color="#D69A4F"/>
<stop offset="0.5446" stop-color="#E0B580"/>
<stop offset="0.6327" stop-color="#DCA96B"/>
<stop offset="0.7959" stop-color="#D59647"/>
<stop offset="0.8899" stop-color="#8C5E2B"/>
<stop offset="0.9422" stop-color="#68421D"/>
<stop offset="1" stop-color="#BA813D"/>
</linearGradient>
</defs>
</svg>
