<svg width="50" height="61" viewBox="0 0 50 61" fill="none" xmlns="http://www.w3.org/2000/svg">
<path d="M23.7379 60.5913C22.8537 60.5913 22.0123 60.1872 21.4608 59.4932L0.634626 33.3665C-0.211542 32.3064 -0.211542 30.7995 0.634626 29.7347L21.4608 3.61277C22.0123 2.91872 22.8537 2.51465 23.7379 2.51465C24.6221 2.51465 25.4635 2.91872 26.0149 3.61277L46.8459 29.7394C47.6921 30.7995 47.6921 32.3064 46.8459 33.3713L26.0149 59.4979C25.4635 60.1872 24.6268 60.5913 23.7379 60.5913ZM6.63387 31.5553L23.7379 53.009L40.8419 31.5553L23.7379 10.1016L6.63387 31.5553Z" fill="url(#paint0_linear_916_1377)"/>
<path d="M24.2419 60.0874C23.3577 60.0874 22.5163 59.6833 21.9649 58.9893L1.13389 32.8674C0.287725 31.8073 0.287725 30.3003 1.13389 29.2355L21.9649 3.10886C22.5163 2.41481 23.3577 2.01074 24.2419 2.01074C25.1261 2.01074 25.9675 2.41481 26.5189 3.10886L47.3499 29.2355C48.1961 30.2956 48.1961 31.8025 47.3499 32.8674L26.5189 58.994C25.9675 59.6833 25.1309 60.0874 24.2419 60.0874ZM7.13789 31.0514L24.2419 52.5051L41.3459 31.0514L24.2419 9.59774L7.13789 31.0514Z" fill="url(#paint1_linear_916_1377)"/>
<path d="M24.7458 59.5835C23.8616 59.5835 23.0202 59.1794 22.4688 58.4853L1.6378 32.3635C0.791632 31.3034 0.791632 29.7964 1.6378 28.7316L22.4688 2.60495C23.0202 1.91091 23.8616 1.50684 24.7458 1.50684C25.63 1.50684 26.4714 1.91091 27.0229 2.60495L47.8538 28.7316C48.7 29.7917 48.7 31.2986 47.8538 32.3635L27.0229 58.4901C26.4714 59.1794 25.63 59.5835 24.7458 59.5835ZM7.64179 30.5475L24.7458 52.0012L41.8498 30.5475L24.7458 9.09383L7.64179 30.5475Z" fill="url(#paint2_linear_916_1377)"/>
<path d="M25.2495 59.0798C24.3653 59.0798 23.5239 58.6757 22.9724 57.9817L2.14146 31.8598C1.29529 30.7997 1.29529 29.2928 2.14146 28.2279L22.9724 2.10129C23.5239 1.40724 24.3653 1.00317 25.2495 1.00317C26.1337 1.00317 26.9751 1.40724 27.5265 2.10129L48.3575 28.2279C49.2036 29.288 49.2036 30.795 48.3575 31.8598L27.5265 57.9864C26.9751 58.6757 26.1337 59.0798 25.2495 59.0798ZM8.14546 30.0439L25.2495 51.4976L42.3535 30.0439L25.2495 8.59017L8.14546 30.0439Z" fill="url(#paint3_linear_916_1377)"/>
<path d="M25.7534 58.5758C24.8692 58.5758 24.0278 58.1717 23.4763 57.4777L2.64537 31.3558C1.7992 30.2957 1.7992 28.7887 2.64537 27.7239L23.4763 1.60202C24.0278 0.907975 24.8692 0.503906 25.7534 0.503906C26.6376 0.503906 27.479 0.907975 28.0304 1.60202L48.8614 27.7287C49.7076 28.7888 49.7076 30.2957 48.8614 31.3605L28.0304 57.4872C27.4742 58.1717 26.6376 58.5758 25.7534 58.5758ZM8.64936 29.5398L25.7534 50.9935L42.8574 29.5398L25.7534 8.08615L8.64936 29.5398Z" fill="url(#paint4_linear_916_1377)"/>
<path d="M26.2573 58.0719C25.3731 58.0719 24.5317 57.6678 23.9802 56.9738L3.14927 30.8519C2.30311 29.7918 2.30311 28.2848 3.14927 27.22L23.9802 1.09812C24.5317 0.404069 25.3683 0 26.2573 0C27.1415 0 27.9829 0.404069 28.5343 1.09812L49.3653 27.2248C50.2115 28.2848 50.2115 29.7918 49.3653 30.8566L28.5343 56.9833C27.9781 57.6678 27.1415 58.0719 26.2573 58.0719ZM9.14851 29.0359L26.2525 50.4896L43.3565 29.0359L26.2573 7.58224L9.14851 29.0359Z" fill="url(#paint5_linear_916_1377)"/>
<path d="M26.2573 57.1021C25.6678 57.1021 25.1069 56.8311 24.7408 56.37L3.90987 30.2481C3.34417 29.5398 3.34417 28.5368 3.90987 27.8284L24.7361 1.7018C25.1021 1.24069 25.6631 0.969727 26.2525 0.969727C26.842 0.969727 27.4029 1.24069 27.769 1.7018L48.5999 27.8284C49.1656 28.5368 49.1656 29.5398 48.5999 30.2481L27.769 56.3747C27.4029 56.8359 26.8467 57.1021 26.2573 57.1021ZM7.90778 29.0359L26.2525 52.0441L44.5973 29.0359L26.2525 6.02772L7.90778 29.0359Z" fill="url(#paint6_linear_916_1377)"/>
<path d="M5.42651 29.0359L26.2575 55.1626L47.0837 29.0359L26.2575 2.91406L5.42651 29.0359Z" fill="black"/>
<defs>
<linearGradient id="paint0_linear_916_1377" x1="23.7393" y1="2.51607" x2="23.7393" y2="60.5896" gradientUnits="userSpaceOnUse">
<stop stop-color="#D59647"/>
<stop offset="0.0905" stop-color="#68421D"/>
<stop offset="0.2927" stop-color="#D59647"/>
<stop offset="0.3254" stop-color="#D69A4F"/>
<stop offset="0.5446" stop-color="#E0B580"/>
<stop offset="0.6327" stop-color="#DCA96B"/>
<stop offset="0.7959" stop-color="#D59647"/>
<stop offset="0.8899" stop-color="#8C5E2B"/>
<stop offset="0.9422" stop-color="#68421D"/>
<stop offset="1" stop-color="#BA813D"/>
</linearGradient>
<linearGradient id="paint1_linear_916_1377" x1="24.2426" y1="2.01283" x2="24.2426" y2="60.0864" gradientUnits="userSpaceOnUse">
<stop stop-color="#D59647"/>
<stop offset="0.0905" stop-color="#68421D"/>
<stop offset="0.2927" stop-color="#D59647"/>
<stop offset="0.3254" stop-color="#D69A4F"/>
<stop offset="0.5446" stop-color="#E0B580"/>
<stop offset="0.6327" stop-color="#DCA96B"/>
<stop offset="0.7959" stop-color="#D59647"/>
<stop offset="0.8899" stop-color="#8C5E2B"/>
<stop offset="0.9422" stop-color="#68421D"/>
<stop offset="1" stop-color="#BA813D"/>
</linearGradient>
<linearGradient id="paint2_linear_916_1377" x1="24.7459" y1="1.50959" x2="24.7459" y2="59.5831" gradientUnits="userSpaceOnUse">
<stop stop-color="#D59647"/>
<stop offset="0.0905" stop-color="#68421D"/>
<stop offset="0.2927" stop-color="#D59647"/>
<stop offset="0.3254" stop-color="#D69A4F"/>
<stop offset="0.5446" stop-color="#E0B580"/>
<stop offset="0.6327" stop-color="#DCA96B"/>
<stop offset="0.7959" stop-color="#D59647"/>
<stop offset="0.8899" stop-color="#8C5E2B"/>
<stop offset="0.9422" stop-color="#68421D"/>
<stop offset="1" stop-color="#BA813D"/>
</linearGradient>
<linearGradient id="paint3_linear_916_1377" x1="25.2488" y1="1.0066" x2="25.2488" y2="59.0801" gradientUnits="userSpaceOnUse">
<stop stop-color="#D59647"/>
<stop offset="0.0905" stop-color="#68421D"/>
<stop offset="0.2927" stop-color="#D59647"/>
<stop offset="0.3254" stop-color="#D69A4F"/>
<stop offset="0.5446" stop-color="#E0B580"/>
<stop offset="0.6327" stop-color="#DCA96B"/>
<stop offset="0.7959" stop-color="#D59647"/>
<stop offset="0.8899" stop-color="#8C5E2B"/>
<stop offset="0.9422" stop-color="#68421D"/>
<stop offset="1" stop-color="#BA813D"/>
</linearGradient>
<linearGradient id="paint4_linear_916_1377" x1="25.7521" y1="0.503241" x2="25.7521" y2="58.5768" gradientUnits="userSpaceOnUse">
<stop stop-color="#D59647"/>
<stop offset="0.0905" stop-color="#68421D"/>
<stop offset="0.2927" stop-color="#D59647"/>
<stop offset="0.3254" stop-color="#D69A4F"/>
<stop offset="0.5446" stop-color="#E0B580"/>
<stop offset="0.6327" stop-color="#DCA96B"/>
<stop offset="0.7959" stop-color="#D59647"/>
<stop offset="0.8899" stop-color="#8C5E2B"/>
<stop offset="0.9422" stop-color="#68421D"/>
<stop offset="1" stop-color="#BA813D"/>
</linearGradient>
<linearGradient id="paint5_linear_916_1377" x1="26.2553" y1="0" x2="26.2553" y2="58.0736" gradientUnits="userSpaceOnUse">
<stop stop-color="#D59647"/>
<stop offset="0.0905" stop-color="#68421D"/>
<stop offset="0.2927" stop-color="#D59647"/>
<stop offset="0.3254" stop-color="#D69A4F"/>
<stop offset="0.5446" stop-color="#E0B580"/>
<stop offset="0.6327" stop-color="#DCA96B"/>
<stop offset="0.7959" stop-color="#D59647"/>
<stop offset="0.8899" stop-color="#8C5E2B"/>
<stop offset="0.9422" stop-color="#68421D"/>
<stop offset="1" stop-color="#BA813D"/>
</linearGradient>
<linearGradient id="paint6_linear_916_1377" x1="40.6064" y1="16.9947" x2="11.9042" y2="41.0788" gradientUnits="userSpaceOnUse">
<stop stop-color="#D59647"/>
<stop offset="0.0905" stop-color="#68421D"/>
<stop offset="0.2927" stop-color="#D59647"/>
<stop offset="0.3254" stop-color="#D69A4F"/>
<stop offset="0.5446" stop-color="#E0B580"/>
<stop offset="0.6327" stop-color="#DCA96B"/>
<stop offset="0.7959" stop-color="#D59647"/>
<stop offset="0.8899" stop-color="#8C5E2B"/>
<stop offset="0.9422" stop-color="#68421D"/>
<stop offset="1" stop-color="#BA813D"/>
</linearGradient>
</defs>
</svg>
