<svg width="80" height="80" viewBox="0 0 80 80" fill="none" xmlns="http://www.w3.org/2000/svg">
<path d="M45.1261 79.9328H31.3268C29.6907 79.9328 28.2089 78.9605 27.5585 77.4585C26.9081 75.9566 27.2098 74.2132 28.3229 73.0197C28.98 72.3089 29.9589 69.6805 30.9379 64.8259C27.7261 67.1526 23.7767 68.5205 19.5189 68.5205C10.2724 68.5205 2.22613 61.9494 0.388903 52.904C0.134104 51.6568 0 50.3829 0 49.1223C0 49.1022 0 49.082 0 49.0619C0 49.0418 0 49.0217 0 49.0016C0 38.233 8.75702 29.476 19.5256 29.476C19.5591 29.476 19.5927 29.476 19.6262 29.476C19.0629 27.6119 18.7076 25.4797 18.7076 23.0725C18.7076 12.3039 27.4646 3.54688 38.2332 3.54688C49.0018 3.54688 57.7588 12.3039 57.7588 23.0725C57.7588 25.4864 57.4034 27.6119 56.8469 29.476C56.8737 29.476 56.9072 29.476 56.934 29.476C67.7026 29.476 76.4596 38.233 76.4596 49.0016V49.1223C76.4596 50.3896 76.3255 51.6703 76.064 52.9241C74.2268 61.9561 66.1805 68.5205 56.934 68.5205C52.6762 68.5205 48.7336 67.1526 45.5217 64.8259C46.5007 69.6805 47.4864 72.3089 48.1368 73.0197C49.2431 74.2199 49.5449 75.97 48.8878 77.4652C48.2307 78.9605 46.7622 79.9328 45.1261 79.9328ZM37.69 71.7189H38.7629C38.5818 71.1087 38.4008 70.4717 38.2265 69.7945C38.0521 70.4717 37.8711 71.1087 37.69 71.7189ZM41.5791 43.5368C42.3301 43.5368 43.081 43.7447 43.7449 44.1537C45.0591 44.9717 45.8034 46.4603 45.6693 48.0025C45.6357 48.4182 45.6156 48.72 45.6156 48.9949C45.6156 55.2307 50.6915 60.3066 56.9273 60.3066C62.2848 60.3066 66.9449 56.5047 68.0111 51.2679C68.1653 50.5438 68.239 49.8263 68.239 49.1223V49.0016C68.239 42.7657 63.1632 37.6899 56.9273 37.6899C53.2529 37.6899 51.3687 39.1047 50.3629 39.8624C47.0707 42.3366 44.8177 40.5061 44.2008 39.8892C43.423 39.1047 42.9805 37.9983 43.0006 36.8919C43.0341 35.048 44.1673 33.9886 44.925 33.2778C46.4202 31.8764 49.5382 28.9597 49.5382 23.0658C49.5382 16.8299 44.4623 11.7541 38.2265 11.7541C31.9906 11.7541 26.9215 16.8299 26.9215 23.0658C26.9215 28.8524 30.0126 31.8697 31.4944 33.3181C32.2923 34.0959 33.3786 35.1553 33.392 36.9858C33.3987 38.0855 32.9495 39.1784 32.1717 39.9562C31.3871 40.7407 29.2079 42.3031 25.9559 39.8959C24.8361 39.0711 22.9721 37.6899 19.5189 37.6899C13.3099 37.6899 8.26083 42.7188 8.2139 48.9144C8.2139 48.968 8.2139 49.015 8.2139 49.0619C8.2139 49.1089 8.2139 49.1625 8.2139 49.2161C8.2206 49.8867 8.29436 50.5706 8.43517 51.2545C9.5013 56.5114 14.1614 60.3133 19.5189 60.3133C25.7548 60.3133 30.8306 55.2374 30.8306 49.0016C30.8306 48.6931 30.8038 48.3646 30.777 48.0494C30.6496 46.5274 31.3737 45.0589 32.6611 44.2409C33.9485 43.4228 35.5846 43.3826 36.9055 44.1403C37.0933 44.2476 37.2944 44.3683 37.4956 44.489C37.7102 44.6164 37.965 44.7773 38.1862 44.8913C38.4612 44.7438 38.7964 44.5359 39.0646 44.3683L39.4334 44.1403C40.0972 43.738 40.8415 43.5368 41.5791 43.5368Z" fill="url(#paint0_linear_914_1359)"/>
<path d="M45.8369 79.2223H32.0376C30.4015 79.2223 28.9197 78.2501 28.2693 76.7481C27.6189 75.2461 27.9206 73.5028 29.0337 72.3092C29.6908 71.5985 30.6697 68.97 31.6487 64.1155C28.4369 66.4422 24.4875 67.81 20.2297 67.81C10.9832 67.81 2.93694 61.2389 1.09971 52.1936C0.838206 50.9464 0.704102 49.6657 0.704102 48.4118C0.704102 48.3917 0.704102 48.3716 0.704102 48.3515C0.704102 48.3314 0.704102 48.3112 0.704102 48.2911C0.704102 37.489 9.54158 28.7253 20.3303 28.7655C19.767 26.9015 19.4117 24.7692 19.4117 22.362C19.4117 11.5934 28.1687 2.83643 38.9373 2.83643C49.7059 2.83643 58.4629 11.5934 58.4629 22.362C58.4629 24.7759 58.1075 26.9015 57.551 28.7655C57.5778 28.7655 57.6113 28.7655 57.6381 28.7655C68.4067 28.7655 77.1637 37.5225 77.1637 48.2911V48.4118C77.1637 49.6791 77.0296 50.9598 76.7681 52.2137C74.9309 61.2456 66.8846 67.81 57.6381 67.81C53.3803 67.81 49.4377 66.4422 46.2258 64.1155C47.2048 68.97 48.1905 71.5985 48.8409 72.3092C49.9472 73.5095 50.249 75.2595 49.5919 76.7548C48.9415 78.2501 47.473 79.2223 45.8369 79.2223ZM38.4009 71.0084H39.4737C39.2927 70.3982 39.1116 69.7612 38.9373 69.084C38.7629 69.7612 38.5819 70.4049 38.4009 71.0084ZM42.2899 42.8331C43.0409 42.8331 43.7919 43.0409 44.4557 43.45C45.7699 44.268 46.5142 45.7565 46.3801 47.2988C46.3465 47.7145 46.3264 48.0162 46.3264 48.2911C46.3264 54.527 51.4023 59.6028 57.6381 59.6028C62.9956 59.6028 67.6557 55.801 68.7219 50.5642C68.8761 49.84 68.9498 49.1226 68.9498 48.4185V48.2978C68.9498 42.062 63.874 36.9861 57.6381 36.9861C53.9637 36.9861 52.0795 38.4009 51.0737 39.1586C47.7815 41.6328 45.5285 39.8023 44.9116 39.1854C44.1338 38.4009 43.6913 37.2946 43.7114 36.1882C43.7449 34.3443 44.8781 33.2848 45.6358 32.5741C47.1311 31.1727 50.249 28.2559 50.249 22.362C50.249 16.1262 45.1731 11.0503 38.9373 11.0503C32.7014 11.0503 27.6323 16.1262 27.6323 22.362C27.6323 28.1486 30.7234 31.166 32.2052 32.6143C33.0032 33.3921 34.0894 34.4515 34.1028 36.2821C34.1095 37.3817 33.6603 38.4747 32.8825 39.2525C32.0979 40.037 29.9188 41.5993 26.6667 39.1921C25.5469 38.3674 23.6829 36.9861 20.2297 36.9861C14.0207 36.9861 8.97164 42.015 8.9247 48.2107C8.9247 48.2643 8.9247 48.3112 8.9247 48.3582C8.9247 48.4051 8.9247 48.4588 8.9247 48.5124C8.93141 49.1829 9.00517 49.8669 9.14598 50.5508C10.2121 55.8077 14.8722 59.6095 20.2297 59.6095C26.4656 59.6095 31.5414 54.5337 31.5414 48.2978C31.5414 47.9894 31.5146 47.6608 31.4878 47.3457C31.3604 45.8236 32.0845 44.3552 33.3719 43.5371C34.6593 42.7191 36.2954 42.6789 37.6163 43.4365C37.8041 43.5438 38.0052 43.6645 38.2064 43.7852C38.421 43.9126 38.6758 44.0735 38.897 44.1875C39.172 44.04 39.5072 43.8322 39.7754 43.6645L40.1442 43.4365C40.808 43.0275 41.5523 42.8331 42.2899 42.8331Z" fill="url(#paint1_linear_914_1359)"/>
<path d="M46.5478 78.5181H32.7417C31.1056 78.5181 29.6238 77.5458 28.9734 76.0439C28.323 74.5419 28.6247 72.7985 29.7378 71.605C30.3882 70.8942 31.3738 68.2658 32.3528 63.4112C29.141 65.7379 25.1916 67.1058 20.9338 67.1058C11.6873 67.1058 3.64104 60.5347 1.80381 51.4893C1.54231 50.2422 1.4082 48.9615 1.4082 47.7009C1.4082 47.6808 1.4082 47.6607 1.4082 47.6405C1.4082 47.6204 1.4082 47.6003 1.4082 47.5802C1.4082 36.8116 10.1652 28.0546 20.9338 28.0546C20.9673 28.0546 21.0009 28.0546 21.0344 28.0546C20.4711 26.1905 20.1158 24.0583 20.1158 21.6511C20.1158 10.8825 28.8728 2.12549 39.6414 2.12549C50.41 2.12549 59.167 10.8825 59.167 21.6511C59.167 24.065 58.8116 26.1905 58.2551 28.0546C58.2819 28.0546 58.3154 28.0546 58.3422 28.0546C69.1108 28.0546 77.8678 36.8116 77.8678 47.5802V47.7009C77.8678 48.9749 77.7337 50.2489 77.4722 51.5027C75.635 60.5347 67.5887 67.0991 58.3422 67.0991C54.0844 67.0991 50.1418 65.7312 46.93 63.4045C47.9089 68.2591 48.8946 70.8875 49.545 71.5983C50.6514 72.7985 50.9531 74.5486 50.296 76.0439C49.6389 77.5391 48.1838 78.5181 46.5478 78.5181ZM39.1117 70.2975H40.1845C40.0035 69.6873 39.8224 69.0503 39.6481 68.3731C39.4737 69.0503 39.2927 69.694 39.1117 70.2975ZM43.0007 42.1221C43.7517 42.1221 44.5027 42.33 45.1665 42.739C46.4807 43.5571 47.225 45.0456 47.0909 46.5878C47.0574 47.0035 47.0372 47.3053 47.0372 47.5802C47.0372 53.816 52.1131 58.8919 58.3489 58.8919C63.7064 58.8919 68.3665 55.09 69.4327 49.8533C69.5869 49.1291 69.6607 48.4116 69.6607 47.7076V47.5869C69.6607 41.351 64.5848 36.2752 58.3489 36.2752C54.6745 36.2752 52.7903 37.69 51.7845 38.4477C48.4923 40.9219 46.2393 39.0914 45.6224 38.4745C44.8446 37.69 44.4021 36.5836 44.4222 35.4773C44.4557 33.6333 45.5889 32.5739 46.3466 31.8631C47.8419 30.4618 50.9598 27.545 50.9598 21.6511C50.9598 15.4152 45.8839 10.3394 39.6481 10.3394C33.4122 10.3394 28.3431 15.4152 28.3431 21.6511C28.3431 27.4377 31.4342 30.4551 32.916 31.9034C33.714 32.6812 34.8002 33.7406 34.8136 35.5711C34.8203 36.6708 34.3711 37.7637 33.5933 38.5415C32.8088 39.3261 30.6363 40.8884 27.3775 38.4812C26.2645 37.6565 24.3937 36.2752 20.9405 36.2752C14.7315 36.2752 9.68245 41.3041 9.63551 47.4997C9.63551 47.5534 9.63551 47.6003 9.63551 47.6472C9.63551 47.6942 9.63551 47.7478 9.63551 47.8015C9.64222 48.472 9.71597 49.1559 9.85678 49.8399C10.9229 55.0967 15.583 58.8986 20.9405 58.8986C27.1764 58.8986 32.2522 53.8228 32.2522 47.5869C32.2522 47.2785 32.2254 46.9499 32.1986 46.6348C32.0712 45.1127 32.7953 43.6442 34.0827 42.8262C35.3702 42.0081 37.0062 41.9679 38.3272 42.7256C38.5149 42.8329 38.7161 42.9536 38.9172 43.0743C39.1318 43.2017 39.3933 43.3626 39.6078 43.4766C39.8828 43.3291 40.218 43.1212 40.4862 42.9536L40.855 42.7256C41.5188 42.3233 42.2564 42.1221 43.0007 42.1221ZM1.43502 47.9289C1.43502 47.9289 1.43502 47.9356 1.43502 47.9289C1.43502 47.9356 1.43502 47.9289 1.43502 47.9289Z" fill="url(#paint2_linear_914_1359)"/>
<path d="M47.2584 77.8071H33.4524C31.8163 77.8071 30.3345 76.8349 29.6841 75.3329C29.0337 73.8309 29.3354 72.0876 30.4485 70.8941C31.0989 70.1833 32.0845 67.5549 33.0635 62.7003C29.8517 65.027 25.9023 66.3949 21.6445 66.3949C12.398 66.3949 4.35174 59.8237 2.5145 50.7784C2.253 49.5312 2.1189 48.2505 2.1189 46.9899C2.1189 46.9698 2.1189 46.9497 2.1189 46.9296C2.1189 46.9095 2.1189 46.8894 2.1189 46.8693C2.1189 36.1007 10.8759 27.3436 21.6445 27.3436C21.678 27.3436 21.7116 27.3436 21.7451 27.3436C21.1818 25.4796 20.8265 23.3473 20.8265 20.9402C20.8265 10.1716 29.5835 1.41455 40.3521 1.41455C51.1207 1.41455 59.8777 10.1716 59.8777 20.9402C59.8777 23.354 59.5223 25.4796 58.9658 27.3436C58.9926 27.3436 59.0261 27.3436 59.0529 27.3436C69.8215 27.3436 78.5785 36.1007 78.5785 46.8693V46.9899C78.5785 48.2639 78.4444 49.5379 78.1829 50.7918C76.3457 59.8237 68.2994 66.3882 59.0529 66.3882C54.7951 66.3882 50.8524 65.0203 47.6406 62.6936C48.6196 67.5482 49.6053 70.1766 50.2557 70.8874C51.362 72.0876 51.6638 73.8377 51.0067 75.3329C50.3496 76.8282 48.8878 77.8071 47.2584 77.8071ZM39.8157 69.5932H40.8885C40.7074 68.9831 40.5264 68.3461 40.3521 67.6688C40.1844 68.3394 40.0034 68.9831 39.8157 69.5932ZM43.7114 41.4112C44.4624 41.4112 45.2134 41.6191 45.8772 42.0281C47.1914 42.8461 47.9357 44.3347 47.8016 45.8769C47.768 46.2926 47.7479 46.5943 47.7479 46.8693C47.7479 53.1051 52.8238 58.181 59.0596 58.181C64.4171 58.181 69.0772 54.3791 70.1434 49.1423C70.2976 48.4182 70.3713 47.7007 70.3713 46.9966V46.8693C70.3713 40.6334 65.2955 35.5575 59.0596 35.5575C55.3852 35.5575 53.501 36.9723 52.4952 37.73C49.203 40.2043 46.95 38.3737 46.3331 37.7569C45.5553 36.9723 45.1128 35.866 45.1329 34.7596C45.1664 32.9157 46.2996 31.8563 47.0573 31.1455C48.5526 29.7441 51.6705 26.8273 51.6705 20.9335C51.6705 14.6976 46.5946 9.62174 40.3588 9.62174C34.1229 9.62174 29.0538 14.6976 29.0538 20.9335C29.0538 26.7201 32.1449 29.7374 33.6267 31.1857C34.4247 31.9635 35.5109 33.023 35.5243 34.8535C35.531 35.9531 35.0818 37.0461 34.304 37.8239C33.5194 38.6084 31.3403 40.1707 28.0882 37.7636C26.9684 36.9388 25.1044 35.5575 21.6512 35.5575C15.4422 35.5575 10.3931 40.5865 10.3462 46.7821C10.3462 46.8357 10.3462 46.8827 10.3462 46.9296C10.3462 46.9765 10.3462 47.0302 10.3462 47.0838C10.3529 47.7543 10.4267 48.4383 10.5675 49.1222C11.6336 54.3791 16.2937 58.181 21.6512 58.181C27.8871 58.181 32.9629 53.1051 32.9629 46.8693C32.9629 46.5608 32.9361 46.2323 32.9093 45.9171C32.7819 44.395 33.506 42.9266 34.7934 42.1085C36.0808 41.2905 37.7169 41.2503 39.0446 42.008C39.2323 42.1152 39.4335 42.2359 39.6346 42.3566C39.8492 42.484 40.1107 42.645 40.3252 42.7589C40.6002 42.6114 40.9354 42.4036 41.2036 42.2359L41.5724 42.008C42.2295 41.6124 42.9671 41.4112 43.7114 41.4112ZM2.14572 47.2179C2.14572 47.2246 2.14572 47.2246 2.14572 47.2179C2.14572 47.2246 2.14572 47.2246 2.14572 47.2179Z" fill="url(#paint3_linear_914_1359)"/>
<path d="M47.9691 77.0968H34.1631C32.527 77.0968 31.0452 76.1246 30.3948 74.6226C29.7443 73.1206 30.0461 71.3773 31.1592 70.1837C31.8096 69.473 32.7952 66.8445 33.7742 61.99C30.5624 64.3167 26.613 65.6845 22.3552 65.6845C13.1087 65.6845 5.06243 59.1134 3.2252 50.0681C2.96369 48.8209 2.82959 47.5402 2.82959 46.2863C2.82959 46.2662 2.82959 46.2461 2.82959 46.226C2.82959 46.2059 2.82959 46.1857 2.82959 46.1656C2.82959 35.397 11.5866 26.64 22.3552 26.64C22.3887 26.64 22.4222 26.64 22.4558 26.64C21.8925 24.776 21.5372 22.6437 21.5372 20.2365C21.5372 9.46796 30.2942 0.710938 41.0628 0.710938C51.8313 0.710938 60.5884 9.46796 60.5884 20.2365C60.5884 22.6504 60.233 24.776 59.6765 26.64C59.7033 26.64 59.7368 26.64 59.7636 26.64C70.5322 26.64 79.2892 35.397 79.2892 46.1656V46.2863C79.2892 47.5536 79.1551 48.8343 78.8936 50.0882C77.0564 59.1201 69.0101 65.6845 59.7636 65.6845C55.5058 65.6845 51.5631 64.3167 48.3513 61.99C49.3303 66.8445 50.316 69.473 50.9664 70.1837C52.0727 71.384 52.3745 73.134 51.7174 74.6293C51.0602 76.1246 49.5985 77.0968 47.9691 77.0968ZM40.5263 68.8829H41.5992C41.4181 68.2728 41.2371 67.6358 41.0628 66.9585C40.8884 67.6291 40.7141 68.2728 40.5263 68.8829ZM44.4221 40.7009C45.1731 40.7009 45.924 40.9087 46.5879 41.3178C47.9021 42.1358 48.6464 43.6244 48.5123 45.1666C48.4787 45.5823 48.4586 45.884 48.4586 46.1589C48.4586 52.3948 53.5345 57.4706 59.7703 57.4706C65.1278 57.4706 69.7879 53.6688 70.8541 48.432C71.0016 47.7078 71.082 46.9904 71.082 46.2863V46.1656C71.082 39.9298 66.0062 34.8539 59.7703 34.8539C56.0959 34.8539 54.2117 36.2687 53.2059 37.0264C49.9137 39.5006 47.6607 37.6701 47.0438 37.0532C46.266 36.2687 45.8235 35.1624 45.8436 34.056C45.8771 32.2121 47.0103 31.1459 47.768 30.4419C49.2632 29.0405 52.3812 26.1237 52.3812 20.2298C52.3812 13.994 47.3053 8.91813 41.0695 8.91813C34.8336 8.91813 29.7645 13.994 29.7645 20.2298C29.7645 26.0164 32.8556 29.0338 34.3374 30.4821C35.1353 31.2599 36.2216 32.3194 36.235 34.1499C36.2417 35.2495 35.7925 36.3425 35.0147 37.1203C34.2301 37.9048 32.0509 39.4671 28.7989 37.0599C27.6791 36.2352 25.8151 34.8539 22.3619 34.8539C16.1529 34.8539 11.1038 39.8828 11.0569 46.0785C11.0569 46.1321 11.0569 46.179 11.0569 46.226C11.0569 46.2729 11.0569 46.3266 11.0569 46.3802C11.0636 47.0507 11.1374 47.7347 11.2782 48.4186C12.3443 53.6755 17.0044 57.4773 22.3619 57.4773C28.5978 57.4773 33.6736 52.4015 33.6736 46.1656C33.6736 45.8572 33.6468 45.5286 33.62 45.2135C33.4926 43.6914 34.2167 42.223 35.5041 41.4049C36.7915 40.5869 38.4276 40.5467 39.7552 41.3043C39.943 41.4116 40.1441 41.5323 40.3453 41.653C40.5599 41.7804 40.8214 41.9413 41.0359 42.0553C41.3109 41.9078 41.6461 41.7 41.9143 41.5323L42.2764 41.3043C42.9402 40.902 43.6778 40.7009 44.4221 40.7009ZM2.84971 46.5076C2.85641 46.5076 2.85641 46.5076 2.84971 46.5076C2.85641 46.5076 2.85641 46.5076 2.84971 46.5076ZM2.84971 46.5009C2.84971 46.5009 2.84971 46.5076 2.84971 46.5009C2.84971 46.5076 2.84971 46.5009 2.84971 46.5009Z" fill="url(#paint4_linear_914_1359)"/>
<path d="M48.6798 76.3859H34.8738C33.2377 76.3859 31.7559 75.4136 31.1054 73.9117C30.455 72.4097 30.7568 70.6663 31.8698 69.4728C32.5203 68.7621 33.5059 66.1336 34.4849 61.279C31.2731 63.6057 27.3237 64.9736 23.0659 64.9736C13.8194 64.9736 5.77312 58.4025 3.93589 49.3571C3.67439 48.11 3.54028 46.8293 3.54028 45.5754C3.54028 45.5553 3.54028 45.5352 3.54028 45.515C3.54028 45.4949 3.54028 45.4748 3.54028 45.4547C3.54028 34.6861 12.2973 25.9291 23.0659 25.9291C23.0994 25.9291 23.1329 25.9291 23.1665 25.9291C22.6032 24.065 22.2479 21.9328 22.2479 19.5256C22.2546 8.75702 31.0116 0 41.7735 0C52.542 0 61.2991 8.75702 61.2991 19.5256C61.2991 21.9395 60.9437 24.065 60.3871 25.9291C60.414 25.9291 60.4475 25.9291 60.4743 25.9291C71.2429 25.9291 79.9999 34.6861 79.9999 45.4547V45.5754C79.9999 46.8427 79.8658 48.1234 79.6043 49.3773C77.7738 58.4025 69.7208 64.9736 60.4743 64.9736C56.2165 64.9736 52.2738 63.6057 49.062 61.279C50.041 66.1336 51.0267 68.7621 51.6771 69.4728C52.7834 70.673 53.0852 72.4231 52.4281 73.9184C51.7709 75.4136 50.3092 76.3859 48.6798 76.3859ZM41.237 68.172H42.3099C42.1288 67.5618 41.9478 66.9248 41.7735 66.2476C41.5991 66.9181 41.4248 67.5618 41.237 68.172ZM45.1261 39.9899C45.8771 39.9899 46.628 40.1978 47.2919 40.6068C48.6061 41.4249 49.3504 42.9134 49.2163 44.4556C49.1827 44.8713 49.1626 45.1731 49.1626 45.448C49.1626 51.6839 54.2385 56.7597 60.4743 56.7597C65.8318 56.7597 70.4919 52.9578 71.5581 47.7211C71.7056 46.9969 71.786 46.2794 71.786 45.5754V45.4547C71.786 39.2188 66.7102 34.143 60.4743 34.143C56.7999 34.143 54.9157 35.5578 53.9099 36.3155C50.6176 38.7897 48.3647 36.9592 47.7478 36.3423C46.97 35.5578 46.5275 34.4514 46.5476 33.3451C46.5811 31.5011 47.7143 30.4417 48.472 29.731C49.9672 28.3296 53.0852 25.4128 53.0852 19.5189C53.0852 13.283 48.0093 8.20719 41.7735 8.20719C35.5376 8.20719 30.4617 13.283 30.4617 19.5189C30.4617 25.3055 33.5529 28.3229 35.0347 29.7712C35.8326 30.549 36.9189 31.6084 36.9323 33.4389C36.939 34.5386 36.4897 35.6315 35.7119 36.4094C34.9274 37.1939 32.7549 38.7562 29.4962 36.349C28.3764 35.5243 26.5124 34.143 23.0592 34.143C16.8501 34.143 11.8011 39.1719 11.7542 45.3675C11.7542 45.4212 11.7542 45.4681 11.7542 45.515C11.7542 45.562 11.7542 45.6156 11.7542 45.6693C11.7609 46.3398 11.8346 47.0237 11.9755 47.7077C13.0416 52.9646 17.7017 56.7664 23.0592 56.7664C29.295 56.7664 34.3709 51.6906 34.3709 45.4547C34.3709 45.1463 34.3441 44.8177 34.3173 44.5026C34.1899 42.9805 34.914 41.512 36.2014 40.694C37.4888 39.876 39.1249 39.8357 40.4525 40.5934C40.6403 40.7007 40.8414 40.8214 41.0426 40.9421C41.2572 41.0695 41.5187 41.2304 41.7332 41.3444C42.0081 41.1969 42.3434 40.989 42.6116 40.8214L42.9737 40.5934C43.6442 40.1911 44.3885 39.9899 45.1261 39.9899ZM3.5604 45.79C3.5604 45.7967 3.5604 45.7967 3.5604 45.79C3.5604 45.7967 3.5604 45.7967 3.5604 45.79Z" fill="url(#paint5_linear_914_1359)"/>
<path d="M48.6799 75.0181H34.8738C33.7809 75.0181 32.7952 74.3677 32.3594 73.3686C31.9235 72.3695 32.1247 71.2028 32.869 70.4049C33.9686 69.2247 35.3499 64.9401 36.5367 57.6046C33.2109 61.2858 28.4033 63.5991 23.0659 63.5991C14.4699 63.5991 6.98682 57.4906 5.27699 49.0756C5.0356 47.9156 4.9082 46.7287 4.9082 45.562C4.9082 45.5419 4.9082 45.5218 4.9082 45.5017C4.9082 45.4816 4.9082 45.4614 4.9082 45.4413C4.9082 35.4304 13.055 27.2836 23.0659 27.2836C23.7901 27.2836 24.4807 27.3238 25.1312 27.3976C24.2461 25.2519 23.6158 22.6436 23.6158 19.5122C23.6158 9.50134 31.7626 1.35449 41.7735 1.35449C51.7844 1.35449 59.9313 9.50134 59.9313 19.5122C59.9313 22.6302 59.301 25.2452 58.4092 27.3909C59.0596 27.3238 59.7502 27.2836 60.4811 27.2836C70.492 27.2836 78.6388 35.4304 78.6388 45.4413V45.562C78.6388 46.7354 78.5181 47.9223 78.2767 49.089C76.5669 57.4906 69.0839 63.5991 60.4878 63.5991C55.1504 63.5991 50.3428 61.2858 47.0237 57.6046C48.2105 64.9401 49.5918 69.2247 50.6915 70.3982C51.4357 71.1961 51.6369 72.3561 51.2011 73.3619C50.7585 74.3677 49.7661 75.0181 48.6799 75.0181ZM39.3529 69.5399H44.2008C43.2151 66.8042 42.4239 63.3174 41.7802 59.5625C41.1298 63.3174 40.3386 66.8042 39.3529 69.5399ZM45.1261 41.3578C45.629 41.3578 46.1252 41.4919 46.5677 41.7669C47.4461 42.31 47.9423 43.3024 47.8484 44.335C47.8082 44.7909 47.7881 45.1329 47.7881 45.448C47.7881 52.4416 53.4741 58.1276 60.4677 58.1276C66.4756 58.1276 71.6989 53.8631 72.8924 47.9893C73.0601 47.178 73.1472 46.3666 73.1472 45.5687V45.448C73.1472 38.4545 67.4612 32.7685 60.4677 32.7685C56.3373 32.7685 54.2184 34.3643 53.0785 35.2159C50.9396 36.8251 49.5248 36.1881 48.7134 35.3701C48.1971 34.8471 47.8954 34.0961 47.9088 33.3585C47.9289 32.0979 48.6732 31.4006 49.3974 30.7234C50.906 29.3086 54.4464 26.0029 54.4464 19.5122C54.4464 12.5187 48.7604 6.83266 41.7668 6.83266C34.7733 6.83266 29.0872 12.5187 29.0872 19.5122C29.0872 25.8822 32.5807 29.2884 34.0759 30.7435C34.8001 31.4542 35.5511 32.1851 35.5578 33.439C35.5645 34.1698 35.256 34.9141 34.7397 35.4304C33.5596 36.6105 32.0711 36.5435 30.3076 35.236C29.1409 34.371 26.9617 32.7617 23.0592 32.7617C16.0925 32.7617 10.4132 38.4143 10.3797 45.3743C10.3797 45.4212 10.3797 45.4614 10.3797 45.5017C10.3797 45.5419 10.3797 45.5821 10.3797 45.6291C10.3864 46.4002 10.4668 47.1847 10.6345 47.9692C11.828 53.8564 17.0581 58.1209 23.0592 58.1209C30.0528 58.1209 35.7388 52.4349 35.7388 45.4413C35.7388 45.0859 35.712 44.7172 35.6852 44.3752C35.598 43.3627 36.0808 42.3837 36.9458 41.8339C37.804 41.2841 38.897 41.264 39.7754 41.7669C39.9564 41.8674 40.1441 41.9814 40.3386 42.1021C40.7946 42.377 41.2639 42.6654 41.626 42.7861C41.6662 42.7995 41.7065 42.8129 41.74 42.8263C41.7802 42.8129 41.8204 42.7995 41.8607 42.7794C42.2831 42.6318 42.8464 42.2832 43.3425 41.9747L43.6979 41.7535C44.1405 41.4919 44.6366 41.3578 45.1261 41.3578Z" fill="url(#paint6_linear_914_1359)"/>
<path d="M60.4743 30.0325C53.655 30.0325 51.0266 33.8075 50.6645 33.4455C50.3024 33.0834 57.1887 29.248 57.1887 19.5187C57.1954 11.0098 50.289 4.11011 41.7734 4.11011C33.2578 4.11011 26.3581 11.0098 26.3581 19.5254C26.3581 29.1608 33.2041 33.1236 32.8152 33.5058C32.4263 33.8947 29.6571 30.0325 23.0725 30.0325C14.5569 30.0325 7.65723 36.9322 7.65723 45.4478C7.65723 45.4679 7.65723 45.488 7.65723 45.5081C7.65723 45.5216 7.65723 45.5484 7.65723 45.5685C7.65723 46.5877 7.77122 47.5801 7.96567 48.5322C9.39388 55.566 15.6163 60.8631 23.0725 60.8631C31.5882 60.8631 38.4878 53.9634 38.4878 45.4478C38.4878 45.012 38.461 44.5761 38.4208 44.147C39.1114 44.5426 39.916 45.0991 40.7743 45.3875C40.2044 51.8714 38.4208 68.4802 34.8737 72.2754H48.6798C45.126 68.4735 43.3424 51.8379 42.7725 45.3673C43.6106 45.0723 44.4488 44.5091 45.126 44.0933C45.0858 44.5359 45.059 44.9918 45.059 45.4411C45.059 53.9567 51.9653 60.8564 60.4743 60.8564C67.9305 60.8564 74.1529 55.5593 75.5811 48.5255C75.7823 47.5667 75.8896 46.5743 75.8896 45.5618C75.8896 45.5417 75.8896 45.5216 75.8896 45.5014C75.8896 45.4813 75.8896 45.4612 75.8896 45.4411C75.8896 36.9322 68.9899 30.0325 60.4743 30.0325Z" fill="black"/>
<defs>
<linearGradient id="paint0_linear_914_1359" x1="38.2257" y1="3.54889" x2="38.2257" y2="79.9347" gradientUnits="userSpaceOnUse">
<stop stop-color="#D59647"/>
<stop offset="0.0905" stop-color="#68421D"/>
<stop offset="0.2927" stop-color="#D59647"/>
<stop offset="0.3254" stop-color="#D69A4F"/>
<stop offset="0.5446" stop-color="#E0B580"/>
<stop offset="0.6327" stop-color="#DCA96B"/>
<stop offset="0.7959" stop-color="#D59647"/>
<stop offset="0.8899" stop-color="#8C5E2B"/>
<stop offset="0.9422" stop-color="#68421D"/>
<stop offset="1" stop-color="#BA813D"/>
</linearGradient>
<linearGradient id="paint1_linear_914_1359" x1="38.9355" y1="2.83938" x2="38.9355" y2="79.2252" gradientUnits="userSpaceOnUse">
<stop stop-color="#D59647"/>
<stop offset="0.0905" stop-color="#68421D"/>
<stop offset="0.2927" stop-color="#D59647"/>
<stop offset="0.3254" stop-color="#D69A4F"/>
<stop offset="0.5446" stop-color="#E0B580"/>
<stop offset="0.6327" stop-color="#DCA96B"/>
<stop offset="0.7959" stop-color="#D59647"/>
<stop offset="0.8899" stop-color="#8C5E2B"/>
<stop offset="0.9422" stop-color="#68421D"/>
<stop offset="1" stop-color="#BA813D"/>
</linearGradient>
<linearGradient id="paint2_linear_914_1359" x1="39.6452" y1="2.12938" x2="39.6452" y2="78.5152" gradientUnits="userSpaceOnUse">
<stop stop-color="#D59647"/>
<stop offset="0.0905" stop-color="#68421D"/>
<stop offset="0.2927" stop-color="#D59647"/>
<stop offset="0.3254" stop-color="#D69A4F"/>
<stop offset="0.5446" stop-color="#E0B580"/>
<stop offset="0.6327" stop-color="#DCA96B"/>
<stop offset="0.7959" stop-color="#D59647"/>
<stop offset="0.8899" stop-color="#8C5E2B"/>
<stop offset="0.9422" stop-color="#68421D"/>
<stop offset="1" stop-color="#BA813D"/>
</linearGradient>
<linearGradient id="paint3_linear_914_1359" x1="40.3549" y1="1.41938" x2="40.3549" y2="77.8052" gradientUnits="userSpaceOnUse">
<stop stop-color="#D59647"/>
<stop offset="0.0905" stop-color="#68421D"/>
<stop offset="0.2927" stop-color="#D59647"/>
<stop offset="0.3254" stop-color="#D69A4F"/>
<stop offset="0.5446" stop-color="#E0B580"/>
<stop offset="0.6327" stop-color="#DCA96B"/>
<stop offset="0.7959" stop-color="#D59647"/>
<stop offset="0.8899" stop-color="#8C5E2B"/>
<stop offset="0.9422" stop-color="#68421D"/>
<stop offset="1" stop-color="#BA813D"/>
</linearGradient>
<linearGradient id="paint4_linear_914_1359" x1="41.0647" y1="0.709999" x2="41.0647" y2="77.0958" gradientUnits="userSpaceOnUse">
<stop stop-color="#D59647"/>
<stop offset="0.0905" stop-color="#68421D"/>
<stop offset="0.2927" stop-color="#D59647"/>
<stop offset="0.3254" stop-color="#D69A4F"/>
<stop offset="0.5446" stop-color="#E0B580"/>
<stop offset="0.6327" stop-color="#DCA96B"/>
<stop offset="0.7959" stop-color="#D59647"/>
<stop offset="0.8899" stop-color="#8C5E2B"/>
<stop offset="0.9422" stop-color="#68421D"/>
<stop offset="1" stop-color="#BA813D"/>
</linearGradient>
<linearGradient id="paint5_linear_914_1359" x1="41.7745" y1="0" x2="41.7745" y2="76.3858" gradientUnits="userSpaceOnUse">
<stop stop-color="#D59647"/>
<stop offset="0.0905" stop-color="#68421D"/>
<stop offset="0.2927" stop-color="#D59647"/>
<stop offset="0.3254" stop-color="#D69A4F"/>
<stop offset="0.5446" stop-color="#E0B580"/>
<stop offset="0.6327" stop-color="#DCA96B"/>
<stop offset="0.7959" stop-color="#D59647"/>
<stop offset="0.8899" stop-color="#8C5E2B"/>
<stop offset="0.9422" stop-color="#68421D"/>
<stop offset="1" stop-color="#BA813D"/>
</linearGradient>
<linearGradient id="paint6_linear_914_1359" x1="65.9227" y1="20.0692" x2="14.3795" y2="63.3191" gradientUnits="userSpaceOnUse">
<stop stop-color="#D59647"/>
<stop offset="0.0905" stop-color="#68421D"/>
<stop offset="0.2927" stop-color="#D59647"/>
<stop offset="0.3254" stop-color="#D69A4F"/>
<stop offset="0.5446" stop-color="#E0B580"/>
<stop offset="0.6327" stop-color="#DCA96B"/>
<stop offset="0.7959" stop-color="#D59647"/>
<stop offset="0.8899" stop-color="#8C5E2B"/>
<stop offset="0.9422" stop-color="#68421D"/>
<stop offset="1" stop-color="#BA813D"/>
</linearGradient>
</defs>
</svg>
