<svg width="50" height="50" viewBox="0 0 50 50" fill="none" xmlns="http://www.w3.org/2000/svg">
<g clip-path="url(#clip0_901_2)">
<path d="M36.5025 40.8859L9.11419 13.4976L8.55594 14.0558L5.67002 16.9393C-1.89066 24.5048 -1.89066 36.767 5.67002 44.3277C9.454 48.1116 14.4103 50 19.3666 50C24.3229 50 29.2792 48.1116 33.0584 44.3277L35.3375 42.0485L36.5001 40.8859H36.5025ZM25.8545 39.3228L29.9904 45.0582C27.255 47.0825 24.0171 48.2694 20.5875 48.5L20.1627 41.3398C22.2258 41.2184 24.1919 40.5194 25.8545 39.3228ZM10.6919 24.1311C9.49041 25.7912 8.79138 27.7573 8.66517 29.8179L1.51225 29.3835C1.74284 26.0582 2.89089 22.7888 4.96128 19.9878L10.6919 24.1311ZM3.64575 39.2112L9.98313 35.7233C10.4734 36.6165 11.0948 37.4417 11.8278 38.1723C12.5559 38.9029 13.3763 39.5218 14.2623 40.0121L10.7623 46.3495C9.28895 45.5412 7.92245 44.5218 6.70157 43.301C5.4807 42.0801 4.44672 40.6796 3.64575 39.2112Z" fill="#E51041"/>
<path d="M22.4175 11.1505C24.6117 8.95631 27.5292 7.74515 30.6335 7.74515C32.5316 7.74515 34.3568 8.19903 35.9952 9.0534L41.6263 3.4199C40.4515 2.60922 39.2088 1.94175 37.9224 1.41748C35.5899 0.473301 33.1141 0 30.6335 0C25.6748 0 20.7209 1.8932 16.9369 5.67233L13.0923 9.51699L18.5704 14.9951L22.4151 11.1505H22.4175Z" fill="white"/>
<path d="M31.4685 16.5947V24.3423H41.1408C40.5753 25.5316 39.8059 26.6263 38.8471 27.585L35.0025 31.4297L40.4806 36.9078L44.3253 33.0632C46.8301 30.5583 48.5049 27.5389 49.3496 24.3423C49.7088 22.9879 49.9199 21.602 49.9782 20.2112V16.5947H31.4661H31.4685V16.5947Z" fill="white"/>
</g>
<defs>
<clipPath id="clip0_901_2">
<rect width="49.9782" height="50" fill="white"/>
</clipPath>
</defs>
</svg>
