<svg width="30" height="30" viewBox="0 0 30 30" fill="none" xmlns="http://www.w3.org/2000/svg">
<path d="M13.8873 13.2216C13.8873 12.3643 14.2008 11.1444 14.2008 10.3201C14.2008 9.46282 14.2008 8.60557 14.1068 7.74831C13.7933 4.81386 12.8214 2.04427 10.7209 0.0989571C12.602 -0.0329285 17.3359 -0.0329285 19.2169 0.0989571C17.1478 2.04427 16.1446 4.81386 15.8624 7.74831C15.7684 8.60557 15.7684 9.46282 15.7684 10.3201C15.7684 11.1773 16.0819 12.3973 16.0819 13.2216H13.8873Z" fill="white" fill-opacity="0.2"/>
<path d="M14.4514 11.1109C13.6676 10.979 13.1974 10.1877 11.7552 8.5391C10.4699 7.05539 9.18451 5.47277 6.23757 5.11008C4.73275 4.91225 2.75768 5.76951 1.84852 7.02242C1.06476 8.11048 0.657205 9.39636 0.343701 10.7152C-0.283307 13.1551 -0.063854 15.562 1.09611 17.8041C2.22472 20.0131 5.29706 20.9693 7.20943 19.7823C8.21264 19.1559 8.5575 18.3646 9.49801 18.1997C9.74881 18.1338 9.99962 18.4305 9.93691 18.7273C9.56071 20.211 8.5575 20.4088 8.08724 22.1563C7.52294 24.2664 7.20943 25.915 10.0623 28.5527C12.2568 30.564 17.5551 30.3991 19.875 28.5527C22.2263 26.6734 22.4457 24.9588 21.8814 22.8816C21.4425 21.2001 20.5647 20.4418 20.1258 19.057C19.969 18.5624 20.4079 18.1008 20.8468 18.2986C21.5366 18.5954 21.9128 19.2548 22.7906 19.7823C24.7029 20.9693 27.7439 20.0131 28.9039 17.8041C30.0639 15.595 30.2833 13.1551 29.6563 10.7152C29.3428 9.42933 28.9039 8.11048 28.1515 7.02242C27.2423 5.73654 25.2359 4.91225 23.7624 5.11008C20.7841 5.47277 19.4988 7.05539 18.2134 8.5391C16.7713 10.1877 16.3324 10.979 15.5173 11.1109H14.4514Z" fill="white" fill-opacity="0.2"/>
</svg>
