<svg width="31" height="28" viewBox="0 0 31 28" fill="none" xmlns="http://www.w3.org/2000/svg">
<g clip-path="url(#clip0_1049_2238)">
<path d="M28.6518 0.107178L16.9248 8.78852L19.1041 3.67081L28.6518 0.107178Z" fill="#E17726" stroke="#E17726" stroke-width="0.25" stroke-linecap="round" stroke-linejoin="round"/>
<path d="M1.59863 0.107178L13.2273 8.8689L11.1463 3.67081L1.59863 0.107178Z" fill="#E27625" stroke="#E27625" stroke-width="0.25" stroke-linecap="round" stroke-linejoin="round"/>
<path d="M24.4276 20.2385L21.3105 25.0079L27.9912 26.8478L29.9026 20.3457L24.4276 20.2385Z" fill="#E27625" stroke="#E27625" stroke-width="0.25" stroke-linecap="round" stroke-linejoin="round"/>
<path d="M0.357422 20.3457L2.25981 26.8478L8.93158 25.0079L5.82345 20.2385L0.357422 20.3457Z" fill="#E27625" stroke="#E27625" stroke-width="0.25" stroke-linecap="round" stroke-linejoin="round"/>
<path d="M8.57404 12.1826L6.71631 14.987L13.3256 15.2907L13.1023 8.17236L8.57404 12.1826Z" fill="#E27625" stroke="#E27625" stroke-width="0.25" stroke-linecap="round" stroke-linejoin="round"/>
<path d="M21.6853 12.1825L17.0766 8.08301L16.9248 15.2817L23.5341 14.9781L21.6853 12.1825Z" fill="#E27625" stroke="#E27625" stroke-width="0.25" stroke-linecap="round" stroke-linejoin="round"/>
<path d="M8.93115 25.0079L12.9324 23.0787L9.4849 20.3904L8.93115 25.0079Z" fill="#E27625" stroke="#E27625" stroke-width="0.25" stroke-linecap="round" stroke-linejoin="round"/>
<path d="M17.3179 23.0698L21.3102 25.0079L20.7654 20.3904L17.3179 23.0698Z" fill="#E27625" stroke="#E27625" stroke-width="0.25" stroke-linecap="round" stroke-linejoin="round"/>
<path d="M21.3102 25.008L17.3179 23.0789L17.6394 25.669L17.6037 26.7675L21.3102 25.008Z" fill="#D5BFB2" stroke="#D5BFB2" stroke-width="0.25" stroke-linecap="round" stroke-linejoin="round"/>
<path d="M8.93115 25.008L12.6466 26.7675L12.6198 25.669L12.9324 23.0789L8.93115 25.008Z" fill="#D5BFB2" stroke="#D5BFB2" stroke-width="0.25" stroke-linecap="round" stroke-linejoin="round"/>
<path d="M12.7097 18.6756L9.38721 17.702L11.7272 16.6213L12.7097 18.6756Z" fill="#233447" stroke="#233447" stroke-width="0.25" stroke-linecap="round" stroke-linejoin="round"/>
<path d="M17.541 18.6757L18.5145 16.6304L20.8724 17.7111L17.541 18.6757Z" fill="#233447" stroke="#233447" stroke-width="0.25" stroke-linecap="round" stroke-linejoin="round"/>
<path d="M8.93138 25.0079L9.51192 20.2385L5.82324 20.3457L8.93138 25.0079Z" fill="#CC6228" stroke="#CC6228" stroke-width="0.25" stroke-linecap="round" stroke-linejoin="round"/>
<path d="M20.7388 20.2385L21.3104 25.0079L24.4274 20.3457L20.7388 20.2385Z" fill="#CC6228" stroke="#CC6228" stroke-width="0.25" stroke-linecap="round" stroke-linejoin="round"/>
<path d="M23.5341 14.9868L16.9248 15.2905L17.5411 18.6844L18.5146 16.6391L20.8725 17.7198L23.5341 14.9868Z" fill="#CC6228" stroke="#CC6228" stroke-width="0.25" stroke-linecap="round" stroke-linejoin="round"/>
<path d="M9.39573 17.702L11.7358 16.6213L12.7093 18.6666L13.3256 15.2727L6.71631 14.969L9.39573 17.702Z" fill="#CC6228" stroke="#CC6228" stroke-width="0.25" stroke-linecap="round" stroke-linejoin="round"/>
<path d="M6.71631 14.9868L9.48505 20.3903L9.39573 17.702L6.71631 14.9868Z" fill="#E27525" stroke="#E27525" stroke-width="0.25" stroke-linecap="round" stroke-linejoin="round"/>
<path d="M20.8728 17.702L20.7656 20.3903L23.5344 14.9868L20.8728 17.702Z" fill="#E27525" stroke="#E27525" stroke-width="0.25" stroke-linecap="round" stroke-linejoin="round"/>
<path d="M13.3257 15.2817L12.7095 18.6757L13.4865 22.677L13.6562 17.3985L13.3257 15.2817Z" fill="#E27525" stroke="#E27525" stroke-width="0.25" stroke-linecap="round" stroke-linejoin="round"/>
<path d="M16.925 15.2817L16.6035 17.3896L16.7643 22.677L17.5413 18.6757L16.925 15.2817Z" fill="#E27525" stroke="#E27525" stroke-width="0.25" stroke-linecap="round" stroke-linejoin="round"/>
<path d="M17.5412 18.6756L16.7642 22.6768L17.3179 23.0698L20.7654 20.3815L20.8726 17.6931L17.5412 18.6756Z" fill="#F5841F" stroke="#F5841F" stroke-width="0.25" stroke-linecap="round" stroke-linejoin="round"/>
<path d="M9.396 17.7021L9.48531 20.3905L12.9328 23.0789L13.4866 22.6859L12.7096 18.6846L9.396 17.7021Z" fill="#F5841F" stroke="#F5841F" stroke-width="0.25" stroke-linecap="round" stroke-linejoin="round"/>
<path d="M17.6125 26.7675L17.6482 25.669L17.3445 25.41H12.9146L12.6288 25.669L12.6556 26.7675L8.93115 25.0081L10.2351 26.0709L12.8699 27.884H17.3803L20.024 26.0709L21.3101 25.0081L17.6125 26.7675Z" fill="#C0AC9D" stroke="#C0AC9D" stroke-width="0.25" stroke-linecap="round" stroke-linejoin="round"/>
<path d="M17.318 23.0697L16.7643 22.6768H13.4865L12.9327 23.0697L12.6201 25.6599L12.9059 25.4008H17.3359L17.6396 25.6599L17.318 23.0697Z" fill="#161616" stroke="#161616" stroke-width="0.25" stroke-linecap="round" stroke-linejoin="round"/>
<path d="M29.152 9.36023L30.1345 4.57299L28.6518 0.116211L17.3179 8.50281L21.6764 12.1826L27.8391 13.9778L29.1967 12.388L28.6072 11.9593L29.545 11.1019L28.8215 10.5481L29.7593 9.8336L29.152 9.36023Z" fill="#763E1A" stroke="#763E1A" stroke-width="0.25" stroke-linecap="round" stroke-linejoin="round"/>
<path d="M0.107422 4.56396L1.10774 9.3512L0.47361 9.82456L1.42927 10.5391L0.705827 11.0928L1.64363 11.9502L1.05415 12.3789L2.41173 13.9687L8.57441 12.1735L12.9329 8.49378L1.59897 0.107178L0.107422 4.56396Z" fill="#763E1A" stroke="#763E1A" stroke-width="0.25" stroke-linecap="round" stroke-linejoin="round"/>
<path d="M27.8393 13.9776L21.6766 12.1824L23.5344 14.9868L20.7656 20.3903L24.4364 20.3457H29.9114L27.8393 13.9776Z" fill="#F5841F" stroke="#F5841F" stroke-width="0.25" stroke-linecap="round" stroke-linejoin="round"/>
<path d="M8.57433 12.1824L2.41165 13.9776L0.357422 20.3457H5.82345L9.49426 20.3903L6.72552 14.9868L8.57433 12.1824Z" fill="#F5841F" stroke="#F5841F" stroke-width="0.25" stroke-linecap="round" stroke-linejoin="round"/>
<path d="M16.9251 15.2816L17.3181 8.50265L19.1044 3.67969H11.1465L12.9328 8.50265L13.3258 15.2816L13.4776 17.4073L13.4865 22.6768H16.7554L16.7643 17.4073L16.9251 15.2816Z" fill="#F5841F" stroke="#F5841F" stroke-width="0.25" stroke-linecap="round" stroke-linejoin="round"/>
</g>
<defs>
<clipPath id="clip0_1049_2238">
<rect width="30.2507" height="28" fill="white"/>
</clipPath>
</defs>
</svg>
