<svg width="1168" height="20" viewBox="0 0 1168 20" fill="none" xmlns="http://www.w3.org/2000/svg">
<path d="M9.2582 11.1856C9.2582 11.7571 9.46721 12.5704 9.46721 13.1199C9.46721 13.6914 9.46721 14.2629 9.4045 14.8345C9.1955 16.7908 8.54759 18.6372 7.14728 19.934C8.40129 20.0219 11.5572 20.0219 12.8112 19.934C11.4318 18.6372 10.763 16.7908 10.5749 14.8345C10.5122 14.2629 10.5122 13.6914 10.5122 13.1199C10.5122 12.5484 10.7212 11.7351 10.7212 11.1856H9.2582Z" fill="white" fill-opacity="0.2"/>
<path d="M9.63425 12.5928C9.11174 12.6807 8.79824 13.2082 7.83682 14.3073C6.97991 15.2964 6.123 16.3515 4.15838 16.5933C3.15517 16.7252 1.83845 16.1537 1.23235 15.3184C0.70984 14.593 0.438136 13.7358 0.229134 12.8565C-0.188871 11.2299 -0.0425693 9.62533 0.73074 8.13063C1.48315 6.65791 3.53137 6.02046 4.80629 6.81177C5.4751 7.22941 5.705 7.75695 6.33201 7.86686C6.49921 7.91082 6.66641 7.71299 6.62461 7.51516C6.37381 6.52602 5.705 6.39414 5.39149 5.22915C5.01529 3.82237 4.80629 2.72332 6.70821 0.964852C8.17123 -0.375983 11.7034 -0.266079 13.25 0.964852C14.8175 2.21776 14.9638 3.36077 14.5876 4.74557C14.295 5.8666 13.7098 6.37216 13.4172 7.29535C13.3127 7.62507 13.6053 7.9328 13.8979 7.80091C14.3577 7.60309 14.6085 7.16347 15.1937 6.81177C16.4686 6.02046 18.4959 6.65791 19.2693 8.13063C20.0426 9.60335 20.1889 11.2299 19.7709 12.8565C19.5619 13.7138 19.2693 14.593 18.7677 15.3184C18.1615 16.1756 16.8239 16.7252 15.8416 16.5933C13.8561 16.3515 12.9992 15.2964 12.1423 14.3073C11.1809 13.2082 10.8883 12.6807 10.3449 12.5928H9.63425V12.5928Z" fill="white" fill-opacity="0.2"/>
<path d="M65.2582 11.1856C65.2582 11.7571 65.4672 12.5704 65.4672 13.1199C65.4672 13.6914 65.4672 14.2629 65.4045 14.8345C65.1955 16.7908 64.5476 18.6372 63.1473 19.934C64.4013 20.0219 67.5572 20.0219 68.8112 19.934C67.4318 18.6372 66.763 16.7908 66.5749 14.8345C66.5122 14.2629 66.5122 13.6914 66.5122 13.1199C66.5122 12.5484 66.7212 11.7351 66.7212 11.1856H65.2582Z" fill="white" fill-opacity="0.2"/>
<path d="M65.6342 12.5928C65.1117 12.6807 64.7982 13.2082 63.8368 14.3073C62.9799 15.2964 62.123 16.3515 60.1584 16.5933C59.1552 16.7252 57.8385 16.1537 57.2323 15.3184C56.7098 14.593 56.4381 13.7358 56.2291 12.8565C55.8111 11.2299 55.9574 9.62533 56.7307 8.13063C57.4831 6.65791 59.5314 6.02046 60.8063 6.81177C61.4751 7.22941 61.705 7.75695 62.332 7.86686C62.4992 7.91082 62.6664 7.71299 62.6246 7.51516C62.3738 6.52602 61.705 6.39414 61.3915 5.22915C61.0153 3.82237 60.8063 2.72332 62.7082 0.964852C64.1712 -0.375983 67.7034 -0.266079 69.25 0.964852C70.8175 2.21776 70.9638 3.36077 70.5876 4.74557C70.295 5.8666 69.7098 6.37216 69.4172 7.29535C69.3127 7.62507 69.6053 7.9328 69.8979 7.80091C70.3577 7.60309 70.6085 7.16347 71.1937 6.81177C72.4686 6.02046 74.4959 6.65791 75.2693 8.13063C76.0426 9.60335 76.1889 11.2299 75.7709 12.8565C75.5619 13.7138 75.2693 14.593 74.7677 15.3184C74.1615 16.1756 72.8239 16.7252 71.8416 16.5933C69.8561 16.3515 68.9992 15.2964 68.1423 14.3073C67.1809 13.2082 66.8883 12.6807 66.3449 12.5928H65.6342V12.5928Z" fill="white" fill-opacity="0.2"/>
<path d="M121.258 11.1856C121.258 11.7571 121.467 12.5704 121.467 13.1199C121.467 13.6914 121.467 14.2629 121.405 14.8345C121.196 16.7908 120.548 18.6372 119.147 19.934C120.401 20.0219 123.557 20.0219 124.811 19.934C123.432 18.6372 122.763 16.7908 122.575 14.8345C122.512 14.2629 122.512 13.6914 122.512 13.1199C122.512 12.5484 122.721 11.7351 122.721 11.1856H121.258Z" fill="white" fill-opacity="0.2"/>
<path d="M121.634 12.5928C121.112 12.6807 120.798 13.2082 119.837 14.3073C118.98 15.2964 118.123 16.3515 116.158 16.5933C115.155 16.7252 113.838 16.1537 113.232 15.3184C112.71 14.593 112.438 13.7358 112.229 12.8565C111.811 11.2299 111.957 9.62533 112.731 8.13063C113.483 6.65791 115.531 6.02046 116.806 6.81177C117.475 7.22941 117.705 7.75695 118.332 7.86686C118.499 7.91082 118.666 7.71299 118.625 7.51516C118.374 6.52602 117.705 6.39414 117.391 5.22915C117.015 3.82237 116.806 2.72332 118.708 0.964852C120.171 -0.375983 123.703 -0.266079 125.25 0.964852C126.818 2.21776 126.964 3.36077 126.588 4.74557C126.295 5.8666 125.71 6.37216 125.417 7.29535C125.313 7.62507 125.605 7.9328 125.898 7.80091C126.358 7.60309 126.609 7.16347 127.194 6.81177C128.469 6.02046 130.496 6.65791 131.269 8.13063C132.043 9.60335 132.189 11.2299 131.771 12.8565C131.562 13.7138 131.269 14.593 130.768 15.3184C130.162 16.1756 128.824 16.7252 127.842 16.5933C125.856 16.3515 124.999 15.2964 124.142 14.3073C123.181 13.2082 122.888 12.6807 122.345 12.5928H121.634V12.5928Z" fill="white" fill-opacity="0.2"/>
<path d="M177.258 11.1856C177.258 11.7571 177.467 12.5704 177.467 13.1199C177.467 13.6914 177.467 14.2629 177.405 14.8345C177.196 16.7908 176.548 18.6372 175.147 19.934C176.401 20.0219 179.557 20.0219 180.811 19.934C179.432 18.6372 178.763 16.7908 178.575 14.8345C178.512 14.2629 178.512 13.6914 178.512 13.1199C178.512 12.5484 178.721 11.7351 178.721 11.1856H177.258Z" fill="white" fill-opacity="0.2"/>
<path d="M177.634 12.5928C177.112 12.6807 176.798 13.2082 175.837 14.3073C174.98 15.2964 174.123 16.3515 172.158 16.5933C171.155 16.7252 169.838 16.1537 169.232 15.3184C168.71 14.593 168.438 13.7358 168.229 12.8565C167.811 11.2299 167.957 9.62533 168.731 8.13063C169.483 6.65791 171.531 6.02046 172.806 6.81177C173.475 7.22941 173.705 7.75695 174.332 7.86686C174.499 7.91082 174.666 7.71299 174.625 7.51516C174.374 6.52602 173.705 6.39414 173.391 5.22915C173.015 3.82237 172.806 2.72332 174.708 0.964852C176.171 -0.375983 179.703 -0.266079 181.25 0.964852C182.818 2.21776 182.964 3.36077 182.588 4.74557C182.295 5.8666 181.71 6.37216 181.417 7.29535C181.313 7.62507 181.605 7.9328 181.898 7.80091C182.358 7.60309 182.609 7.16347 183.194 6.81177C184.469 6.02046 186.496 6.65791 187.269 8.13063C188.043 9.60335 188.189 11.2299 187.771 12.8565C187.562 13.7138 187.269 14.593 186.768 15.3184C186.162 16.1756 184.824 16.7252 183.842 16.5933C181.856 16.3515 180.999 15.2964 180.142 14.3073C179.181 13.2082 178.888 12.6807 178.345 12.5928H177.634V12.5928Z" fill="white" fill-opacity="0.2"/>
<path d="M233.258 11.1856C233.258 11.7571 233.467 12.5704 233.467 13.1199C233.467 13.6914 233.467 14.2629 233.405 14.8345C233.196 16.7908 232.548 18.6372 231.147 19.934C232.401 20.0219 235.557 20.0219 236.811 19.934C235.432 18.6372 234.763 16.7908 234.575 14.8345C234.512 14.2629 234.512 13.6914 234.512 13.1199C234.512 12.5484 234.721 11.7351 234.721 11.1856H233.258Z" fill="white" fill-opacity="0.2"/>
<path d="M233.634 12.5928C233.112 12.6807 232.798 13.2082 231.837 14.3073C230.98 15.2964 230.123 16.3515 228.158 16.5933C227.155 16.7252 225.838 16.1537 225.232 15.3184C224.71 14.593 224.438 13.7358 224.229 12.8565C223.811 11.2299 223.957 9.62533 224.731 8.13063C225.483 6.65791 227.531 6.02046 228.806 6.81177C229.475 7.22941 229.705 7.75695 230.332 7.86686C230.499 7.91082 230.666 7.71299 230.625 7.51516C230.374 6.52602 229.705 6.39414 229.391 5.22915C229.015 3.82237 228.806 2.72332 230.708 0.964852C232.171 -0.375983 235.703 -0.266079 237.25 0.964852C238.818 2.21776 238.964 3.36077 238.588 4.74557C238.295 5.8666 237.71 6.37216 237.417 7.29535C237.313 7.62507 237.605 7.9328 237.898 7.80091C238.358 7.60309 238.609 7.16347 239.194 6.81177C240.469 6.02046 242.496 6.65791 243.269 8.13063C244.043 9.60335 244.189 11.2299 243.771 12.8565C243.562 13.7138 243.269 14.593 242.768 15.3184C242.162 16.1756 240.824 16.7252 239.842 16.5933C237.856 16.3515 236.999 15.2964 236.142 14.3073C235.181 13.2082 234.888 12.6807 234.345 12.5928H233.634V12.5928Z" fill="white" fill-opacity="0.2"/>
<path d="M289.258 11.1856C289.258 11.7571 289.467 12.5704 289.467 13.1199C289.467 13.6914 289.467 14.2629 289.405 14.8345C289.196 16.7908 288.548 18.6372 287.147 19.934C288.401 20.0219 291.557 20.0219 292.811 19.934C291.432 18.6372 290.763 16.7908 290.575 14.8345C290.512 14.2629 290.512 13.6914 290.512 13.1199C290.512 12.5484 290.721 11.7351 290.721 11.1856H289.258Z" fill="white" fill-opacity="0.2"/>
<path d="M289.634 12.5928C289.112 12.6807 288.798 13.2082 287.837 14.3073C286.98 15.2964 286.123 16.3515 284.158 16.5933C283.155 16.7252 281.838 16.1537 281.232 15.3184C280.71 14.593 280.438 13.7358 280.229 12.8565C279.811 11.2299 279.957 9.62533 280.731 8.13063C281.483 6.65791 283.531 6.02046 284.806 6.81177C285.475 7.22941 285.705 7.75695 286.332 7.86686C286.499 7.91082 286.666 7.71299 286.625 7.51516C286.374 6.52602 285.705 6.39414 285.391 5.22915C285.015 3.82237 284.806 2.72332 286.708 0.964852C288.171 -0.375983 291.703 -0.266079 293.25 0.964852C294.818 2.21776 294.964 3.36077 294.588 4.74557C294.295 5.8666 293.71 6.37216 293.417 7.29535C293.313 7.62507 293.605 7.9328 293.898 7.80091C294.358 7.60309 294.609 7.16347 295.194 6.81177C296.469 6.02046 298.496 6.65791 299.269 8.13063C300.043 9.60335 300.189 11.2299 299.771 12.8565C299.562 13.7138 299.269 14.593 298.768 15.3184C298.162 16.1756 296.824 16.7252 295.842 16.5933C293.856 16.3515 292.999 15.2964 292.142 14.3073C291.181 13.2082 290.888 12.6807 290.345 12.5928H289.634V12.5928Z" fill="white" fill-opacity="0.2"/>
<path d="M345.258 11.1856C345.258 11.7571 345.467 12.5704 345.467 13.1199C345.467 13.6914 345.467 14.2629 345.405 14.8345C345.196 16.7908 344.548 18.6372 343.147 19.934C344.401 20.0219 347.557 20.0219 348.811 19.934C347.432 18.6372 346.763 16.7908 346.575 14.8345C346.512 14.2629 346.512 13.6914 346.512 13.1199C346.512 12.5484 346.721 11.7351 346.721 11.1856H345.258Z" fill="white" fill-opacity="0.2"/>
<path d="M345.634 12.5928C345.112 12.6807 344.798 13.2082 343.837 14.3073C342.98 15.2964 342.123 16.3515 340.158 16.5933C339.155 16.7252 337.838 16.1537 337.232 15.3184C336.71 14.593 336.438 13.7358 336.229 12.8565C335.811 11.2299 335.957 9.62533 336.731 8.13063C337.483 6.65791 339.531 6.02046 340.806 6.81177C341.475 7.22941 341.705 7.75695 342.332 7.86686C342.499 7.91082 342.666 7.71299 342.625 7.51516C342.374 6.52602 341.705 6.39414 341.391 5.22915C341.015 3.82237 340.806 2.72332 342.708 0.964852C344.171 -0.375983 347.703 -0.266079 349.25 0.964852C350.818 2.21776 350.964 3.36077 350.588 4.74557C350.295 5.8666 349.71 6.37216 349.417 7.29535C349.313 7.62507 349.605 7.9328 349.898 7.80091C350.358 7.60309 350.609 7.16347 351.194 6.81177C352.469 6.02046 354.496 6.65791 355.269 8.13063C356.043 9.60335 356.189 11.2299 355.771 12.8565C355.562 13.7138 355.269 14.593 354.768 15.3184C354.162 16.1756 352.824 16.7252 351.842 16.5933C349.856 16.3515 348.999 15.2964 348.142 14.3073C347.181 13.2082 346.888 12.6807 346.345 12.5928H345.634V12.5928Z" fill="white" fill-opacity="0.2"/>
<path d="M401.258 11.1856C401.258 11.7571 401.467 12.5704 401.467 13.1199C401.467 13.6914 401.467 14.2629 401.405 14.8345C401.196 16.7908 400.548 18.6372 399.147 19.934C400.401 20.0219 403.557 20.0219 404.811 19.934C403.432 18.6372 402.763 16.7908 402.575 14.8345C402.512 14.2629 402.512 13.6914 402.512 13.1199C402.512 12.5484 402.721 11.7351 402.721 11.1856H401.258Z" fill="white" fill-opacity="0.2"/>
<path d="M401.634 12.5928C401.112 12.6807 400.798 13.2082 399.837 14.3073C398.98 15.2964 398.123 16.3515 396.158 16.5933C395.155 16.7252 393.838 16.1537 393.232 15.3184C392.71 14.593 392.438 13.7358 392.229 12.8565C391.811 11.2299 391.957 9.62533 392.731 8.13063C393.483 6.65791 395.531 6.02046 396.806 6.81177C397.475 7.22941 397.705 7.75695 398.332 7.86686C398.499 7.91082 398.666 7.71299 398.625 7.51516C398.374 6.52602 397.705 6.39414 397.391 5.22915C397.015 3.82237 396.806 2.72332 398.708 0.964852C400.171 -0.375983 403.703 -0.266079 405.25 0.964852C406.818 2.21776 406.964 3.36077 406.588 4.74557C406.295 5.8666 405.71 6.37216 405.417 7.29535C405.313 7.62507 405.605 7.9328 405.898 7.80091C406.358 7.60309 406.609 7.16347 407.194 6.81177C408.469 6.02046 410.496 6.65791 411.269 8.13063C412.043 9.60335 412.189 11.2299 411.771 12.8565C411.562 13.7138 411.269 14.593 410.768 15.3184C410.162 16.1756 408.824 16.7252 407.842 16.5933C405.856 16.3515 404.999 15.2964 404.142 14.3073C403.181 13.2082 402.888 12.6807 402.345 12.5928H401.634V12.5928Z" fill="white" fill-opacity="0.2"/>
<path d="M457.258 11.1856C457.258 11.7571 457.467 12.5704 457.467 13.1199C457.467 13.6914 457.467 14.2629 457.405 14.8345C457.196 16.7908 456.548 18.6372 455.147 19.934C456.401 20.0219 459.557 20.0219 460.811 19.934C459.432 18.6372 458.763 16.7908 458.575 14.8345C458.512 14.2629 458.512 13.6914 458.512 13.1199C458.512 12.5484 458.721 11.7351 458.721 11.1856H457.258Z" fill="white" fill-opacity="0.2"/>
<path d="M457.634 12.5928C457.112 12.6807 456.798 13.2082 455.837 14.3073C454.98 15.2964 454.123 16.3515 452.158 16.5933C451.155 16.7252 449.838 16.1537 449.232 15.3184C448.71 14.593 448.438 13.7358 448.229 12.8565C447.811 11.2299 447.957 9.62533 448.731 8.13063C449.483 6.65791 451.531 6.02046 452.806 6.81177C453.475 7.22941 453.705 7.75695 454.332 7.86686C454.499 7.91082 454.666 7.71299 454.625 7.51516C454.374 6.52602 453.705 6.39414 453.391 5.22915C453.015 3.82237 452.806 2.72332 454.708 0.964852C456.171 -0.375983 459.703 -0.266079 461.25 0.964852C462.818 2.21776 462.964 3.36077 462.588 4.74557C462.295 5.8666 461.71 6.37216 461.417 7.29535C461.313 7.62507 461.605 7.9328 461.898 7.80091C462.358 7.60309 462.609 7.16347 463.194 6.81177C464.469 6.02046 466.496 6.65791 467.269 8.13063C468.043 9.60335 468.189 11.2299 467.771 12.8565C467.562 13.7138 467.269 14.593 466.768 15.3184C466.162 16.1756 464.824 16.7252 463.842 16.5933C461.856 16.3515 460.999 15.2964 460.142 14.3073C459.181 13.2082 458.888 12.6807 458.345 12.5928H457.634V12.5928Z" fill="white" fill-opacity="0.2"/>
<path d="M513.258 11.1856C513.258 11.7571 513.467 12.5704 513.467 13.1199C513.467 13.6914 513.467 14.2629 513.405 14.8345C513.196 16.7908 512.548 18.6372 511.147 19.934C512.401 20.0219 515.557 20.0219 516.811 19.934C515.432 18.6372 514.763 16.7908 514.575 14.8345C514.512 14.2629 514.512 13.6914 514.512 13.1199C514.512 12.5484 514.721 11.7351 514.721 11.1856H513.258Z" fill="white" fill-opacity="0.2"/>
<path d="M513.634 12.5928C513.112 12.6807 512.798 13.2082 511.837 14.3073C510.98 15.2964 510.123 16.3515 508.158 16.5933C507.155 16.7252 505.838 16.1537 505.232 15.3184C504.71 14.593 504.438 13.7358 504.229 12.8565C503.811 11.2299 503.957 9.62533 504.731 8.13063C505.483 6.65791 507.531 6.02046 508.806 6.81177C509.475 7.22941 509.705 7.75695 510.332 7.86686C510.499 7.91082 510.666 7.71299 510.625 7.51516C510.374 6.52602 509.705 6.39414 509.391 5.22915C509.015 3.82237 508.806 2.72332 510.708 0.964852C512.171 -0.375983 515.703 -0.266079 517.25 0.964852C518.818 2.21776 518.964 3.36077 518.588 4.74557C518.295 5.8666 517.71 6.37216 517.417 7.29535C517.313 7.62507 517.605 7.9328 517.898 7.80091C518.358 7.60309 518.609 7.16347 519.194 6.81177C520.469 6.02046 522.496 6.65791 523.269 8.13063C524.043 9.60335 524.189 11.2299 523.771 12.8565C523.562 13.7138 523.269 14.593 522.768 15.3184C522.162 16.1756 520.824 16.7252 519.842 16.5933C517.856 16.3515 516.999 15.2964 516.142 14.3073C515.181 13.2082 514.888 12.6807 514.345 12.5928H513.634V12.5928Z" fill="white" fill-opacity="0.2"/>
<path d="M569.258 11.1856C569.258 11.7571 569.467 12.5704 569.467 13.1199C569.467 13.6914 569.467 14.2629 569.405 14.8345C569.196 16.7908 568.548 18.6372 567.147 19.934C568.401 20.0219 571.557 20.0219 572.811 19.934C571.432 18.6372 570.763 16.7908 570.575 14.8345C570.512 14.2629 570.512 13.6914 570.512 13.1199C570.512 12.5484 570.721 11.7351 570.721 11.1856H569.258Z" fill="white" fill-opacity="0.2"/>
<path d="M569.634 12.5928C569.112 12.6807 568.798 13.2082 567.837 14.3073C566.98 15.2964 566.123 16.3515 564.158 16.5933C563.155 16.7252 561.838 16.1537 561.232 15.3184C560.71 14.593 560.438 13.7358 560.229 12.8565C559.811 11.2299 559.957 9.62533 560.731 8.13063C561.483 6.65791 563.531 6.02046 564.806 6.81177C565.475 7.22941 565.705 7.75695 566.332 7.86686C566.499 7.91082 566.666 7.71299 566.625 7.51516C566.374 6.52602 565.705 6.39414 565.391 5.22915C565.015 3.82237 564.806 2.72332 566.708 0.964852C568.171 -0.375983 571.703 -0.266079 573.25 0.964852C574.818 2.21776 574.964 3.36077 574.588 4.74557C574.295 5.8666 573.71 6.37216 573.417 7.29535C573.313 7.62507 573.605 7.9328 573.898 7.80091C574.358 7.60309 574.609 7.16347 575.194 6.81177C576.469 6.02046 578.496 6.65791 579.269 8.13063C580.043 9.60335 580.189 11.2299 579.771 12.8565C579.562 13.7138 579.269 14.593 578.768 15.3184C578.162 16.1756 576.824 16.7252 575.842 16.5933C573.856 16.3515 572.999 15.2964 572.142 14.3073C571.181 13.2082 570.888 12.6807 570.345 12.5928H569.634V12.5928Z" fill="white" fill-opacity="0.2"/>
<path d="M625.258 11.1856C625.258 11.7571 625.467 12.5704 625.467 13.1199C625.467 13.6914 625.467 14.2629 625.405 14.8345C625.196 16.7908 624.548 18.6372 623.147 19.934C624.401 20.0219 627.557 20.0219 628.811 19.934C627.432 18.6372 626.763 16.7908 626.575 14.8345C626.512 14.2629 626.512 13.6914 626.512 13.1199C626.512 12.5484 626.721 11.7351 626.721 11.1856H625.258Z" fill="white" fill-opacity="0.2"/>
<path d="M625.634 12.5928C625.112 12.6807 624.798 13.2082 623.837 14.3073C622.98 15.2964 622.123 16.3515 620.158 16.5933C619.155 16.7252 617.838 16.1537 617.232 15.3184C616.71 14.593 616.438 13.7358 616.229 12.8565C615.811 11.2299 615.957 9.62533 616.731 8.13063C617.483 6.65791 619.531 6.02046 620.806 6.81177C621.475 7.22941 621.705 7.75695 622.332 7.86686C622.499 7.91082 622.666 7.71299 622.625 7.51516C622.374 6.52602 621.705 6.39414 621.391 5.22915C621.015 3.82237 620.806 2.72332 622.708 0.964852C624.171 -0.375983 627.703 -0.266079 629.25 0.964852C630.818 2.21776 630.964 3.36077 630.588 4.74557C630.295 5.8666 629.71 6.37216 629.417 7.29535C629.313 7.62507 629.605 7.9328 629.898 7.80091C630.358 7.60309 630.609 7.16347 631.194 6.81177C632.469 6.02046 634.496 6.65791 635.269 8.13063C636.043 9.60335 636.189 11.2299 635.771 12.8565C635.562 13.7138 635.269 14.593 634.768 15.3184C634.162 16.1756 632.824 16.7252 631.842 16.5933C629.856 16.3515 628.999 15.2964 628.142 14.3073C627.181 13.2082 626.888 12.6807 626.345 12.5928H625.634V12.5928Z" fill="white" fill-opacity="0.2"/>
<path d="M681.258 11.1856C681.258 11.7571 681.467 12.5704 681.467 13.1199C681.467 13.6914 681.467 14.2629 681.405 14.8345C681.196 16.7908 680.548 18.6372 679.147 19.934C680.401 20.0219 683.557 20.0219 684.811 19.934C683.432 18.6372 682.763 16.7908 682.575 14.8345C682.512 14.2629 682.512 13.6914 682.512 13.1199C682.512 12.5484 682.721 11.7351 682.721 11.1856H681.258Z" fill="white" fill-opacity="0.2"/>
<path d="M681.634 12.5928C681.112 12.6807 680.798 13.2082 679.837 14.3073C678.98 15.2964 678.123 16.3515 676.158 16.5933C675.155 16.7252 673.838 16.1537 673.232 15.3184C672.71 14.593 672.438 13.7358 672.229 12.8565C671.811 11.2299 671.957 9.62533 672.731 8.13063C673.483 6.65791 675.531 6.02046 676.806 6.81177C677.475 7.22941 677.705 7.75695 678.332 7.86686C678.499 7.91082 678.666 7.71299 678.625 7.51516C678.374 6.52602 677.705 6.39414 677.391 5.22915C677.015 3.82237 676.806 2.72332 678.708 0.964852C680.171 -0.375983 683.703 -0.266079 685.25 0.964852C686.818 2.21776 686.964 3.36077 686.588 4.74557C686.295 5.8666 685.71 6.37216 685.417 7.29535C685.313 7.62507 685.605 7.9328 685.898 7.80091C686.358 7.60309 686.609 7.16347 687.194 6.81177C688.469 6.02046 690.496 6.65791 691.269 8.13063C692.043 9.60335 692.189 11.2299 691.771 12.8565C691.562 13.7138 691.269 14.593 690.768 15.3184C690.162 16.1756 688.824 16.7252 687.842 16.5933C685.856 16.3515 684.999 15.2964 684.142 14.3073C683.181 13.2082 682.888 12.6807 682.345 12.5928H681.634V12.5928Z" fill="white" fill-opacity="0.2"/>
<path d="M737.258 11.1856C737.258 11.7571 737.467 12.5704 737.467 13.1199C737.467 13.6914 737.467 14.2629 737.405 14.8345C737.196 16.7908 736.548 18.6372 735.147 19.934C736.401 20.0219 739.557 20.0219 740.811 19.934C739.432 18.6372 738.763 16.7908 738.575 14.8345C738.512 14.2629 738.512 13.6914 738.512 13.1199C738.512 12.5484 738.721 11.7351 738.721 11.1856H737.258Z" fill="white" fill-opacity="0.2"/>
<path d="M737.634 12.5928C737.112 12.6807 736.798 13.2082 735.837 14.3073C734.98 15.2964 734.123 16.3515 732.158 16.5933C731.155 16.7252 729.838 16.1537 729.232 15.3184C728.71 14.593 728.438 13.7358 728.229 12.8565C727.811 11.2299 727.957 9.62533 728.731 8.13063C729.483 6.65791 731.531 6.02046 732.806 6.81177C733.475 7.22941 733.705 7.75695 734.332 7.86686C734.499 7.91082 734.666 7.71299 734.625 7.51516C734.374 6.52602 733.705 6.39414 733.391 5.22915C733.015 3.82237 732.806 2.72332 734.708 0.964852C736.171 -0.375983 739.703 -0.266079 741.25 0.964852C742.818 2.21776 742.964 3.36077 742.588 4.74557C742.295 5.8666 741.71 6.37216 741.417 7.29535C741.313 7.62507 741.605 7.9328 741.898 7.80091C742.358 7.60309 742.609 7.16347 743.194 6.81177C744.469 6.02046 746.496 6.65791 747.269 8.13063C748.043 9.60335 748.189 11.2299 747.771 12.8565C747.562 13.7138 747.269 14.593 746.768 15.3184C746.162 16.1756 744.824 16.7252 743.842 16.5933C741.856 16.3515 740.999 15.2964 740.142 14.3073C739.181 13.2082 738.888 12.6807 738.345 12.5928H737.634V12.5928Z" fill="white" fill-opacity="0.2"/>
<path d="M793.258 11.1856C793.258 11.7571 793.467 12.5704 793.467 13.1199C793.467 13.6914 793.467 14.2629 793.405 14.8345C793.196 16.7908 792.548 18.6372 791.147 19.934C792.401 20.0219 795.557 20.0219 796.811 19.934C795.432 18.6372 794.763 16.7908 794.575 14.8345C794.512 14.2629 794.512 13.6914 794.512 13.1199C794.512 12.5484 794.721 11.7351 794.721 11.1856H793.258Z" fill="white" fill-opacity="0.2"/>
<path d="M793.634 12.5928C793.112 12.6807 792.798 13.2082 791.837 14.3073C790.98 15.2964 790.123 16.3515 788.158 16.5933C787.155 16.7252 785.838 16.1537 785.232 15.3184C784.71 14.593 784.438 13.7358 784.229 12.8565C783.811 11.2299 783.957 9.62533 784.731 8.13063C785.483 6.65791 787.531 6.02046 788.806 6.81177C789.475 7.22941 789.705 7.75695 790.332 7.86686C790.499 7.91082 790.666 7.71299 790.625 7.51516C790.374 6.52602 789.705 6.39414 789.391 5.22915C789.015 3.82237 788.806 2.72332 790.708 0.964852C792.171 -0.375983 795.703 -0.266079 797.25 0.964852C798.818 2.21776 798.964 3.36077 798.588 4.74557C798.295 5.8666 797.71 6.37216 797.417 7.29535C797.313 7.62507 797.605 7.9328 797.898 7.80091C798.358 7.60309 798.609 7.16347 799.194 6.81177C800.469 6.02046 802.496 6.65791 803.269 8.13063C804.043 9.60335 804.189 11.2299 803.771 12.8565C803.562 13.7138 803.269 14.593 802.768 15.3184C802.162 16.1756 800.824 16.7252 799.842 16.5933C797.856 16.3515 796.999 15.2964 796.142 14.3073C795.181 13.2082 794.888 12.6807 794.345 12.5928H793.634V12.5928Z" fill="white" fill-opacity="0.2"/>
<path d="M849.258 11.1856C849.258 11.7571 849.467 12.5704 849.467 13.1199C849.467 13.6914 849.467 14.2629 849.405 14.8345C849.196 16.7908 848.548 18.6372 847.147 19.934C848.401 20.0219 851.557 20.0219 852.811 19.934C851.432 18.6372 850.763 16.7908 850.575 14.8345C850.512 14.2629 850.512 13.6914 850.512 13.1199C850.512 12.5484 850.721 11.7351 850.721 11.1856H849.258Z" fill="white" fill-opacity="0.2"/>
<path d="M849.634 12.5928C849.112 12.6807 848.798 13.2082 847.837 14.3073C846.98 15.2964 846.123 16.3515 844.158 16.5933C843.155 16.7252 841.838 16.1537 841.232 15.3184C840.71 14.593 840.438 13.7358 840.229 12.8565C839.811 11.2299 839.957 9.62533 840.731 8.13063C841.483 6.65791 843.531 6.02046 844.806 6.81177C845.475 7.22941 845.705 7.75695 846.332 7.86686C846.499 7.91082 846.666 7.71299 846.625 7.51516C846.374 6.52602 845.705 6.39414 845.391 5.22915C845.015 3.82237 844.806 2.72332 846.708 0.964852C848.171 -0.375983 851.703 -0.266079 853.25 0.964852C854.818 2.21776 854.964 3.36077 854.588 4.74557C854.295 5.8666 853.71 6.37216 853.417 7.29535C853.313 7.62507 853.605 7.9328 853.898 7.80091C854.358 7.60309 854.609 7.16347 855.194 6.81177C856.469 6.02046 858.496 6.65791 859.269 8.13063C860.043 9.60335 860.189 11.2299 859.771 12.8565C859.562 13.7138 859.269 14.593 858.768 15.3184C858.162 16.1756 856.824 16.7252 855.842 16.5933C853.856 16.3515 852.999 15.2964 852.142 14.3073C851.181 13.2082 850.888 12.6807 850.345 12.5928H849.634V12.5928Z" fill="white" fill-opacity="0.2"/>
<path d="M905.258 11.1856C905.258 11.7571 905.467 12.5704 905.467 13.1199C905.467 13.6914 905.467 14.2629 905.405 14.8345C905.196 16.7908 904.548 18.6372 903.147 19.934C904.401 20.0219 907.557 20.0219 908.811 19.934C907.432 18.6372 906.763 16.7908 906.575 14.8345C906.512 14.2629 906.512 13.6914 906.512 13.1199C906.512 12.5484 906.721 11.7351 906.721 11.1856H905.258Z" fill="white" fill-opacity="0.2"/>
<path d="M905.634 12.5928C905.112 12.6807 904.798 13.2082 903.837 14.3073C902.98 15.2964 902.123 16.3515 900.158 16.5933C899.155 16.7252 897.838 16.1537 897.232 15.3184C896.71 14.593 896.438 13.7358 896.229 12.8565C895.811 11.2299 895.957 9.62533 896.731 8.13063C897.483 6.65791 899.531 6.02046 900.806 6.81177C901.475 7.22941 901.705 7.75695 902.332 7.86686C902.499 7.91082 902.666 7.71299 902.625 7.51516C902.374 6.52602 901.705 6.39414 901.391 5.22915C901.015 3.82237 900.806 2.72332 902.708 0.964852C904.171 -0.375983 907.703 -0.266079 909.25 0.964852C910.818 2.21776 910.964 3.36077 910.588 4.74557C910.295 5.8666 909.71 6.37216 909.417 7.29535C909.313 7.62507 909.605 7.9328 909.898 7.80091C910.358 7.60309 910.609 7.16347 911.194 6.81177C912.469 6.02046 914.496 6.65791 915.269 8.13063C916.043 9.60335 916.189 11.2299 915.771 12.8565C915.562 13.7138 915.269 14.593 914.768 15.3184C914.162 16.1756 912.824 16.7252 911.842 16.5933C909.856 16.3515 908.999 15.2964 908.142 14.3073C907.181 13.2082 906.888 12.6807 906.345 12.5928H905.634V12.5928Z" fill="white" fill-opacity="0.2"/>
<path d="M961.258 11.1856C961.258 11.7571 961.467 12.5704 961.467 13.1199C961.467 13.6914 961.467 14.2629 961.405 14.8345C961.196 16.7908 960.548 18.6372 959.147 19.934C960.401 20.0219 963.557 20.0219 964.811 19.934C963.432 18.6372 962.763 16.7908 962.575 14.8345C962.512 14.2629 962.512 13.6914 962.512 13.1199C962.512 12.5484 962.721 11.7351 962.721 11.1856H961.258Z" fill="white" fill-opacity="0.2"/>
<path d="M961.634 12.5928C961.112 12.6807 960.798 13.2082 959.837 14.3073C958.98 15.2964 958.123 16.3515 956.158 16.5933C955.155 16.7252 953.838 16.1537 953.232 15.3184C952.71 14.593 952.438 13.7358 952.229 12.8565C951.811 11.2299 951.957 9.62533 952.731 8.13063C953.483 6.65791 955.531 6.02046 956.806 6.81177C957.475 7.22941 957.705 7.75695 958.332 7.86686C958.499 7.91082 958.666 7.71299 958.625 7.51516C958.374 6.52602 957.705 6.39414 957.391 5.22915C957.015 3.82237 956.806 2.72332 958.708 0.964852C960.171 -0.375983 963.703 -0.266079 965.25 0.964852C966.818 2.21776 966.964 3.36077 966.588 4.74557C966.295 5.8666 965.71 6.37216 965.417 7.29535C965.313 7.62507 965.605 7.9328 965.898 7.80091C966.358 7.60309 966.609 7.16347 967.194 6.81177C968.469 6.02046 970.496 6.65791 971.269 8.13063C972.043 9.60335 972.189 11.2299 971.771 12.8565C971.562 13.7138 971.269 14.593 970.768 15.3184C970.162 16.1756 968.824 16.7252 967.842 16.5933C965.856 16.3515 964.999 15.2964 964.142 14.3073C963.181 13.2082 962.888 12.6807 962.345 12.5928H961.634V12.5928Z" fill="white" fill-opacity="0.2"/>
<path d="M1017.26 11.1856C1017.26 11.7571 1017.47 12.5704 1017.47 13.1199C1017.47 13.6914 1017.47 14.2629 1017.4 14.8345C1017.2 16.7908 1016.55 18.6372 1015.15 19.934C1016.4 20.0219 1019.56 20.0219 1020.81 19.934C1019.43 18.6372 1018.76 16.7908 1018.57 14.8345C1018.51 14.2629 1018.51 13.6914 1018.51 13.1199C1018.51 12.5484 1018.72 11.7351 1018.72 11.1856H1017.26Z" fill="white" fill-opacity="0.2"/>
<path d="M1017.63 12.5928C1017.11 12.6807 1016.8 13.2082 1015.84 14.3073C1014.98 15.2964 1014.12 16.3515 1012.16 16.5933C1011.16 16.7252 1009.84 16.1537 1009.23 15.3184C1008.71 14.593 1008.44 13.7358 1008.23 12.8565C1007.81 11.2299 1007.96 9.62533 1008.73 8.13063C1009.48 6.65791 1011.53 6.02046 1012.81 6.81177C1013.48 7.22941 1013.7 7.75695 1014.33 7.86686C1014.5 7.91082 1014.67 7.71299 1014.62 7.51516C1014.37 6.52602 1013.7 6.39414 1013.39 5.22915C1013.02 3.82237 1012.81 2.72332 1014.71 0.964852C1016.17 -0.375983 1019.7 -0.266079 1021.25 0.964852C1022.82 2.21776 1022.96 3.36077 1022.59 4.74557C1022.3 5.8666 1021.71 6.37216 1021.42 7.29535C1021.31 7.62507 1021.61 7.9328 1021.9 7.80091C1022.36 7.60309 1022.61 7.16347 1023.19 6.81177C1024.47 6.02046 1026.5 6.65791 1027.27 8.13063C1028.04 9.60335 1028.19 11.2299 1027.77 12.8565C1027.56 13.7138 1027.27 14.593 1026.77 15.3184C1026.16 16.1756 1024.82 16.7252 1023.84 16.5933C1021.86 16.3515 1021 15.2964 1020.14 14.3073C1019.18 13.2082 1018.89 12.6807 1018.34 12.5928H1017.63V12.5928Z" fill="white" fill-opacity="0.2"/>
<path d="M1073.26 11.1856C1073.26 11.7571 1073.47 12.5704 1073.47 13.1199C1073.47 13.6914 1073.47 14.2629 1073.4 14.8345C1073.2 16.7908 1072.55 18.6372 1071.15 19.934C1072.4 20.0219 1075.56 20.0219 1076.81 19.934C1075.43 18.6372 1074.76 16.7908 1074.57 14.8345C1074.51 14.2629 1074.51 13.6914 1074.51 13.1199C1074.51 12.5484 1074.72 11.7351 1074.72 11.1856H1073.26Z" fill="white" fill-opacity="0.2"/>
<path d="M1073.63 12.5928C1073.11 12.6807 1072.8 13.2082 1071.84 14.3073C1070.98 15.2964 1070.12 16.3515 1068.16 16.5933C1067.16 16.7252 1065.84 16.1537 1065.23 15.3184C1064.71 14.593 1064.44 13.7358 1064.23 12.8565C1063.81 11.2299 1063.96 9.62533 1064.73 8.13063C1065.48 6.65791 1067.53 6.02046 1068.81 6.81177C1069.48 7.22941 1069.7 7.75695 1070.33 7.86686C1070.5 7.91082 1070.67 7.71299 1070.62 7.51516C1070.37 6.52602 1069.7 6.39414 1069.39 5.22915C1069.02 3.82237 1068.81 2.72332 1070.71 0.964852C1072.17 -0.375983 1075.7 -0.266079 1077.25 0.964852C1078.82 2.21776 1078.96 3.36077 1078.59 4.74557C1078.3 5.8666 1077.71 6.37216 1077.42 7.29535C1077.31 7.62507 1077.61 7.9328 1077.9 7.80091C1078.36 7.60309 1078.61 7.16347 1079.19 6.81177C1080.47 6.02046 1082.5 6.65791 1083.27 8.13063C1084.04 9.60335 1084.19 11.2299 1083.77 12.8565C1083.56 13.7138 1083.27 14.593 1082.77 15.3184C1082.16 16.1756 1080.82 16.7252 1079.84 16.5933C1077.86 16.3515 1077 15.2964 1076.14 14.3073C1075.18 13.2082 1074.89 12.6807 1074.34 12.5928H1073.63V12.5928Z" fill="white" fill-opacity="0.2"/>
<path d="M1129.26 11.1856C1129.26 11.7571 1129.47 12.5704 1129.47 13.1199C1129.47 13.6914 1129.47 14.2629 1129.4 14.8345C1129.2 16.7908 1128.55 18.6372 1127.15 19.934C1128.4 20.0219 1131.56 20.0219 1132.81 19.934C1131.43 18.6372 1130.76 16.7908 1130.57 14.8345C1130.51 14.2629 1130.51 13.6914 1130.51 13.1199C1130.51 12.5484 1130.72 11.7351 1130.72 11.1856H1129.26Z" fill="white" fill-opacity="0.2"/>
<path d="M1129.63 12.5928C1129.11 12.6807 1128.8 13.2082 1127.84 14.3073C1126.98 15.2964 1126.12 16.3515 1124.16 16.5933C1123.16 16.7252 1121.84 16.1537 1121.23 15.3184C1120.71 14.593 1120.44 13.7358 1120.23 12.8565C1119.81 11.2299 1119.96 9.62533 1120.73 8.13063C1121.48 6.65791 1123.53 6.02046 1124.81 6.81177C1125.48 7.22941 1125.7 7.75695 1126.33 7.86686C1126.5 7.91082 1126.67 7.71299 1126.62 7.51516C1126.37 6.52602 1125.7 6.39414 1125.39 5.22915C1125.02 3.82237 1124.81 2.72332 1126.71 0.964852C1128.17 -0.375983 1131.7 -0.266079 1133.25 0.964852C1134.82 2.21776 1134.96 3.36077 1134.59 4.74557C1134.3 5.8666 1133.71 6.37216 1133.42 7.29535C1133.31 7.62507 1133.61 7.9328 1133.9 7.80091C1134.36 7.60309 1134.61 7.16347 1135.19 6.81177C1136.47 6.02046 1138.5 6.65791 1139.27 8.13063C1140.04 9.60335 1140.19 11.2299 1139.77 12.8565C1139.56 13.7138 1139.27 14.593 1138.77 15.3184C1138.16 16.1756 1136.82 16.7252 1135.84 16.5933C1133.86 16.3515 1133 15.2964 1132.14 14.3073C1131.18 13.2082 1130.89 12.6807 1130.34 12.5928H1129.63V12.5928Z" fill="white" fill-opacity="0.2"/>
<path d="M38.7418 8.81438C38.7418 8.24287 38.5328 7.42958 38.5328 6.88006C38.5328 6.30855 38.5328 5.73705 38.5955 5.16555C38.8045 3.20925 39.4524 1.36285 40.8527 0.0659765C39.5987 -0.0219473 36.4428 -0.0219475 35.1888 0.065976C36.5682 1.36285 37.237 3.20925 37.4251 5.16555C37.4878 5.73705 37.4878 6.30855 37.4878 6.88006C37.4878 7.45156 37.2788 8.26485 37.2788 8.81438L38.7418 8.81438Z" fill="white" fill-opacity="0.2"/>
<path d="M38.3658 7.40725C38.8883 7.31932 39.2018 6.79178 40.1632 5.69274C41.0201 4.70359 41.877 3.64851 43.8416 3.40672C44.8448 3.27484 46.1615 3.84634 46.7677 4.68162C47.2902 5.40699 47.5619 6.26424 47.7709 7.14348C48.1889 8.77006 48.0426 10.3747 47.2693 11.8694C46.5169 13.3421 44.4686 13.9795 43.1937 13.1882C42.5249 12.7706 42.295 12.243 41.668 12.1331C41.5008 12.0892 41.3336 12.287 41.3754 12.4848C41.6262 13.474 42.295 13.6059 42.6085 14.7709C42.9847 16.1776 43.1937 17.2767 41.2918 19.0351C39.8288 20.376 36.2966 20.2661 34.75 19.0351C33.1825 17.7822 33.0362 16.6392 33.4124 15.2544C33.705 14.1334 34.2902 13.6278 34.5828 12.7046C34.6873 12.3749 34.3947 12.0672 34.1021 12.1991C33.6423 12.3969 33.3915 12.8365 32.8063 13.1882C31.5314 13.9795 29.5041 13.3421 28.7307 11.8694C27.9574 10.3966 27.8111 8.77006 28.2291 7.14348C28.4381 6.28622 28.7307 5.40698 29.2323 4.68161C29.8385 3.82436 31.1761 3.27484 32.1584 3.40672C34.1439 3.64851 35.0008 4.70359 35.8577 5.69274C36.8191 6.79178 37.1117 7.31932 37.6551 7.40725L38.3658 7.40725V7.40725Z" fill="white" fill-opacity="0.2"/>
<path d="M94.7418 8.81438C94.7418 8.24287 94.5328 7.42958 94.5328 6.88006C94.5328 6.30855 94.5328 5.73705 94.5955 5.16555C94.8045 3.20925 95.4524 1.36285 96.8527 0.0659765C95.5987 -0.0219473 92.4427 -0.0219475 91.1887 0.065976C92.5681 1.36285 93.2369 3.20925 93.4251 5.16555C93.4878 5.73705 93.4878 6.30855 93.4878 6.88006C93.4878 7.45156 93.2787 8.26485 93.2787 8.81438L94.7418 8.81438Z" fill="white" fill-opacity="0.2"/>
<path d="M94.3658 7.40725C94.8883 7.31932 95.2018 6.79178 96.1632 5.69274C97.0201 4.70359 97.877 3.64851 99.8416 3.40672C100.845 3.27484 102.162 3.84634 102.768 4.68162C103.29 5.40699 103.562 6.26424 103.771 7.14348C104.189 8.77006 104.043 10.3747 103.269 11.8694C102.517 13.3421 100.469 13.9795 99.1937 13.1882C98.5249 12.7706 98.295 12.243 97.668 12.1331C97.5008 12.0892 97.3336 12.287 97.3754 12.4848C97.6262 13.474 98.295 13.6059 98.6085 14.7709C98.9847 16.1776 99.1937 17.2767 97.2918 19.0351C95.8288 20.376 92.2966 20.2661 90.75 19.0351C89.1825 17.7822 89.0362 16.6392 89.4124 15.2544C89.705 14.1334 90.2902 13.6278 90.5828 12.7046C90.6873 12.3749 90.3947 12.0672 90.1021 12.1991C89.6423 12.3969 89.3915 12.8365 88.8063 13.1882C87.5314 13.9795 85.5041 13.3421 84.7307 11.8694C83.9574 10.3966 83.8111 8.77006 84.2291 7.14348C84.4381 6.28622 84.7307 5.40698 85.2323 4.68161C85.8385 3.82436 87.1761 3.27484 88.1584 3.40672C90.1439 3.64851 91.0008 4.70359 91.8577 5.69274C92.8191 6.79178 93.1117 7.31932 93.6551 7.40725L94.3658 7.40725V7.40725Z" fill="white" fill-opacity="0.2"/>
<path d="M150.742 8.81438C150.742 8.24287 150.533 7.42958 150.533 6.88006C150.533 6.30855 150.533 5.73705 150.595 5.16555C150.804 3.20925 151.452 1.36285 152.853 0.0659765C151.599 -0.0219473 148.443 -0.0219475 147.189 0.065976C148.568 1.36285 149.237 3.20925 149.425 5.16555C149.488 5.73705 149.488 6.30855 149.488 6.88006C149.488 7.45156 149.279 8.26485 149.279 8.81438L150.742 8.81438Z" fill="white" fill-opacity="0.2"/>
<path d="M150.366 7.40725C150.888 7.31932 151.202 6.79178 152.163 5.69274C153.02 4.70359 153.877 3.64851 155.842 3.40672C156.845 3.27484 158.162 3.84634 158.768 4.68162C159.29 5.40699 159.562 6.26424 159.771 7.14348C160.189 8.77006 160.043 10.3747 159.269 11.8694C158.517 13.3421 156.469 13.9795 155.194 13.1882C154.525 12.7706 154.295 12.243 153.668 12.1331C153.501 12.0892 153.334 12.287 153.375 12.4848C153.626 13.474 154.295 13.6059 154.609 14.7709C154.985 16.1776 155.194 17.2767 153.292 19.0351C151.829 20.376 148.297 20.2661 146.75 19.0351C145.182 17.7822 145.036 16.6392 145.412 15.2544C145.705 14.1334 146.29 13.6278 146.583 12.7046C146.687 12.3749 146.395 12.0672 146.102 12.1991C145.642 12.3969 145.391 12.8365 144.806 13.1882C143.531 13.9795 141.504 13.3421 140.731 11.8694C139.957 10.3966 139.811 8.77006 140.229 7.14348C140.438 6.28622 140.731 5.40698 141.232 4.68161C141.838 3.82436 143.176 3.27484 144.158 3.40672C146.144 3.64851 147.001 4.70359 147.858 5.69274C148.819 6.79178 149.112 7.31932 149.655 7.40725L150.366 7.40725V7.40725Z" fill="white" fill-opacity="0.2"/>
<path d="M206.742 8.81438C206.742 8.24287 206.533 7.42958 206.533 6.88006C206.533 6.30855 206.533 5.73705 206.595 5.16555C206.804 3.20925 207.452 1.36285 208.853 0.0659765C207.599 -0.0219473 204.443 -0.0219475 203.189 0.065976C204.568 1.36285 205.237 3.20925 205.425 5.16555C205.488 5.73705 205.488 6.30855 205.488 6.88006C205.488 7.45156 205.279 8.26485 205.279 8.81438L206.742 8.81438Z" fill="white" fill-opacity="0.2"/>
<path d="M206.366 7.40725C206.888 7.31932 207.202 6.79178 208.163 5.69274C209.02 4.70359 209.877 3.64851 211.842 3.40672C212.845 3.27484 214.162 3.84634 214.768 4.68162C215.29 5.40699 215.562 6.26424 215.771 7.14348C216.189 8.77006 216.043 10.3747 215.269 11.8694C214.517 13.3421 212.469 13.9795 211.194 13.1882C210.525 12.7706 210.295 12.243 209.668 12.1331C209.501 12.0892 209.334 12.287 209.375 12.4848C209.626 13.474 210.295 13.6059 210.609 14.7709C210.985 16.1776 211.194 17.2767 209.292 19.0351C207.829 20.376 204.297 20.2661 202.75 19.0351C201.182 17.7822 201.036 16.6392 201.412 15.2544C201.705 14.1334 202.29 13.6278 202.583 12.7046C202.687 12.3749 202.395 12.0672 202.102 12.1991C201.642 12.3969 201.391 12.8365 200.806 13.1882C199.531 13.9795 197.504 13.3421 196.731 11.8694C195.957 10.3966 195.811 8.77006 196.229 7.14348C196.438 6.28622 196.731 5.40698 197.232 4.68161C197.838 3.82436 199.176 3.27484 200.158 3.40672C202.144 3.64851 203.001 4.70359 203.858 5.69274C204.819 6.79178 205.112 7.31932 205.655 7.40725L206.366 7.40725V7.40725Z" fill="white" fill-opacity="0.2"/>
<path d="M262.742 8.81438C262.742 8.24287 262.533 7.42958 262.533 6.88006C262.533 6.30855 262.533 5.73705 262.595 5.16555C262.804 3.20925 263.452 1.36285 264.853 0.0659765C263.599 -0.0219473 260.443 -0.0219475 259.189 0.065976C260.568 1.36285 261.237 3.20925 261.425 5.16555C261.488 5.73705 261.488 6.30855 261.488 6.88006C261.488 7.45156 261.279 8.26485 261.279 8.81438L262.742 8.81438Z" fill="white" fill-opacity="0.2"/>
<path d="M262.366 7.40725C262.888 7.31932 263.202 6.79178 264.163 5.69274C265.02 4.70359 265.877 3.64851 267.842 3.40672C268.845 3.27484 270.162 3.84634 270.768 4.68162C271.29 5.40699 271.562 6.26424 271.771 7.14348C272.189 8.77006 272.043 10.3747 271.269 11.8694C270.517 13.3421 268.469 13.9795 267.194 13.1882C266.525 12.7706 266.295 12.243 265.668 12.1331C265.501 12.0892 265.334 12.287 265.375 12.4848C265.626 13.474 266.295 13.6059 266.609 14.7709C266.985 16.1776 267.194 17.2767 265.292 19.0351C263.829 20.376 260.297 20.2661 258.75 19.0351C257.182 17.7822 257.036 16.6392 257.412 15.2544C257.705 14.1334 258.29 13.6278 258.583 12.7046C258.687 12.3749 258.395 12.0672 258.102 12.1991C257.642 12.3969 257.391 12.8365 256.806 13.1882C255.531 13.9795 253.504 13.3421 252.731 11.8694C251.957 10.3966 251.811 8.77006 252.229 7.14348C252.438 6.28622 252.731 5.40698 253.232 4.68161C253.838 3.82436 255.176 3.27484 256.158 3.40672C258.144 3.64851 259.001 4.70359 259.858 5.69274C260.819 6.79178 261.112 7.31932 261.655 7.40725L262.366 7.40725V7.40725Z" fill="white" fill-opacity="0.2"/>
<path d="M318.742 8.81438C318.742 8.24287 318.533 7.42958 318.533 6.88006C318.533 6.30855 318.533 5.73705 318.595 5.16555C318.804 3.20925 319.452 1.36285 320.853 0.0659765C319.599 -0.0219473 316.443 -0.0219475 315.189 0.065976C316.568 1.36285 317.237 3.20925 317.425 5.16555C317.488 5.73705 317.488 6.30855 317.488 6.88006C317.488 7.45156 317.279 8.26485 317.279 8.81438L318.742 8.81438Z" fill="white" fill-opacity="0.2"/>
<path d="M318.366 7.40725C318.888 7.31932 319.202 6.79178 320.163 5.69274C321.02 4.70359 321.877 3.64851 323.842 3.40672C324.845 3.27484 326.162 3.84634 326.768 4.68162C327.29 5.40699 327.562 6.26424 327.771 7.14348C328.189 8.77006 328.043 10.3747 327.269 11.8694C326.517 13.3421 324.469 13.9795 323.194 13.1882C322.525 12.7706 322.295 12.243 321.668 12.1331C321.501 12.0892 321.334 12.287 321.375 12.4848C321.626 13.474 322.295 13.6059 322.609 14.7709C322.985 16.1776 323.194 17.2767 321.292 19.0351C319.829 20.376 316.297 20.2661 314.75 19.0351C313.182 17.7822 313.036 16.6392 313.412 15.2544C313.705 14.1334 314.29 13.6278 314.583 12.7046C314.687 12.3749 314.395 12.0672 314.102 12.1991C313.642 12.3969 313.391 12.8365 312.806 13.1882C311.531 13.9795 309.504 13.3421 308.731 11.8694C307.957 10.3966 307.811 8.77006 308.229 7.14348C308.438 6.28622 308.731 5.40698 309.232 4.68161C309.838 3.82436 311.176 3.27484 312.158 3.40672C314.144 3.64851 315.001 4.70359 315.858 5.69274C316.819 6.79178 317.112 7.31932 317.655 7.40725L318.366 7.40725V7.40725Z" fill="white" fill-opacity="0.2"/>
<path d="M374.742 8.81438C374.742 8.24287 374.533 7.42958 374.533 6.88006C374.533 6.30855 374.533 5.73705 374.595 5.16555C374.804 3.20925 375.452 1.36285 376.853 0.0659765C375.599 -0.0219473 372.443 -0.0219475 371.189 0.065976C372.568 1.36285 373.237 3.20925 373.425 5.16555C373.488 5.73705 373.488 6.30855 373.488 6.88006C373.488 7.45156 373.279 8.26485 373.279 8.81438L374.742 8.81438Z" fill="white" fill-opacity="0.2"/>
<path d="M374.366 7.40725C374.888 7.31932 375.202 6.79178 376.163 5.69274C377.02 4.70359 377.877 3.64851 379.842 3.40672C380.845 3.27484 382.162 3.84634 382.768 4.68162C383.29 5.40699 383.562 6.26424 383.771 7.14348C384.189 8.77006 384.043 10.3747 383.269 11.8694C382.517 13.3421 380.469 13.9795 379.194 13.1882C378.525 12.7706 378.295 12.243 377.668 12.1331C377.501 12.0892 377.334 12.287 377.375 12.4848C377.626 13.474 378.295 13.6059 378.609 14.7709C378.985 16.1776 379.194 17.2767 377.292 19.0351C375.829 20.376 372.297 20.2661 370.75 19.0351C369.182 17.7822 369.036 16.6392 369.412 15.2544C369.705 14.1334 370.29 13.6278 370.583 12.7046C370.687 12.3749 370.395 12.0672 370.102 12.1991C369.642 12.3969 369.391 12.8365 368.806 13.1882C367.531 13.9795 365.504 13.3421 364.731 11.8694C363.957 10.3966 363.811 8.77006 364.229 7.14348C364.438 6.28622 364.731 5.40698 365.232 4.68161C365.838 3.82436 367.176 3.27484 368.158 3.40672C370.144 3.64851 371.001 4.70359 371.858 5.69274C372.819 6.79178 373.112 7.31932 373.655 7.40725L374.366 7.40725V7.40725Z" fill="white" fill-opacity="0.2"/>
<path d="M430.742 8.81438C430.742 8.24287 430.533 7.42958 430.533 6.88006C430.533 6.30855 430.533 5.73705 430.595 5.16555C430.804 3.20925 431.452 1.36285 432.853 0.0659765C431.599 -0.0219473 428.443 -0.0219475 427.189 0.065976C428.568 1.36285 429.237 3.20925 429.425 5.16555C429.488 5.73705 429.488 6.30855 429.488 6.88006C429.488 7.45156 429.279 8.26485 429.279 8.81438L430.742 8.81438Z" fill="white" fill-opacity="0.2"/>
<path d="M430.366 7.40725C430.888 7.31932 431.202 6.79178 432.163 5.69274C433.02 4.70359 433.877 3.64851 435.842 3.40672C436.845 3.27484 438.162 3.84634 438.768 4.68162C439.29 5.40699 439.562 6.26424 439.771 7.14348C440.189 8.77006 440.043 10.3747 439.269 11.8694C438.517 13.3421 436.469 13.9795 435.194 13.1882C434.525 12.7706 434.295 12.243 433.668 12.1331C433.501 12.0892 433.334 12.287 433.375 12.4848C433.626 13.474 434.295 13.6059 434.609 14.7709C434.985 16.1776 435.194 17.2767 433.292 19.0351C431.829 20.376 428.297 20.2661 426.75 19.0351C425.182 17.7822 425.036 16.6392 425.412 15.2544C425.705 14.1334 426.29 13.6278 426.583 12.7046C426.687 12.3749 426.395 12.0672 426.102 12.1991C425.642 12.3969 425.391 12.8365 424.806 13.1882C423.531 13.9795 421.504 13.3421 420.731 11.8694C419.957 10.3966 419.811 8.77006 420.229 7.14348C420.438 6.28622 420.731 5.40698 421.232 4.68161C421.838 3.82436 423.176 3.27484 424.158 3.40672C426.144 3.64851 427.001 4.70359 427.858 5.69274C428.819 6.79178 429.112 7.31932 429.655 7.40725L430.366 7.40725V7.40725Z" fill="white" fill-opacity="0.2"/>
<path d="M486.742 8.81438C486.742 8.24287 486.533 7.42958 486.533 6.88006C486.533 6.30855 486.533 5.73705 486.595 5.16555C486.804 3.20925 487.452 1.36285 488.853 0.0659765C487.599 -0.0219473 484.443 -0.0219475 483.189 0.065976C484.568 1.36285 485.237 3.20925 485.425 5.16555C485.488 5.73705 485.488 6.30855 485.488 6.88006C485.488 7.45156 485.279 8.26485 485.279 8.81438L486.742 8.81438Z" fill="white" fill-opacity="0.2"/>
<path d="M486.366 7.40725C486.888 7.31932 487.202 6.79178 488.163 5.69274C489.02 4.70359 489.877 3.64851 491.842 3.40672C492.845 3.27484 494.162 3.84634 494.768 4.68162C495.29 5.40699 495.562 6.26424 495.771 7.14348C496.189 8.77006 496.043 10.3747 495.269 11.8694C494.517 13.3421 492.469 13.9795 491.194 13.1882C490.525 12.7706 490.295 12.243 489.668 12.1331C489.501 12.0892 489.334 12.287 489.375 12.4848C489.626 13.474 490.295 13.6059 490.609 14.7709C490.985 16.1776 491.194 17.2767 489.292 19.0351C487.829 20.376 484.297 20.2661 482.75 19.0351C481.182 17.7822 481.036 16.6392 481.412 15.2544C481.705 14.1334 482.29 13.6278 482.583 12.7046C482.687 12.3749 482.395 12.0672 482.102 12.1991C481.642 12.3969 481.391 12.8365 480.806 13.1882C479.531 13.9795 477.504 13.3421 476.731 11.8694C475.957 10.3966 475.811 8.77006 476.229 7.14348C476.438 6.28622 476.731 5.40698 477.232 4.68161C477.838 3.82436 479.176 3.27484 480.158 3.40672C482.144 3.64851 483.001 4.70359 483.858 5.69274C484.819 6.79178 485.112 7.31932 485.655 7.40725L486.366 7.40725V7.40725Z" fill="white" fill-opacity="0.2"/>
<path d="M542.742 8.81438C542.742 8.24287 542.533 7.42958 542.533 6.88006C542.533 6.30855 542.533 5.73705 542.595 5.16555C542.804 3.20925 543.452 1.36285 544.853 0.0659765C543.599 -0.0219473 540.443 -0.0219475 539.189 0.065976C540.568 1.36285 541.237 3.20925 541.425 5.16555C541.488 5.73705 541.488 6.30855 541.488 6.88006C541.488 7.45156 541.279 8.26485 541.279 8.81438L542.742 8.81438Z" fill="white" fill-opacity="0.2"/>
<path d="M542.366 7.40725C542.888 7.31932 543.202 6.79178 544.163 5.69274C545.02 4.70359 545.877 3.64851 547.842 3.40672C548.845 3.27484 550.162 3.84634 550.768 4.68162C551.29 5.40699 551.562 6.26424 551.771 7.14348C552.189 8.77006 552.043 10.3747 551.269 11.8694C550.517 13.3421 548.469 13.9795 547.194 13.1882C546.525 12.7706 546.295 12.243 545.668 12.1331C545.501 12.0892 545.334 12.287 545.375 12.4848C545.626 13.474 546.295 13.6059 546.609 14.7709C546.985 16.1776 547.194 17.2767 545.292 19.0351C543.829 20.376 540.297 20.2661 538.75 19.0351C537.182 17.7822 537.036 16.6392 537.412 15.2544C537.705 14.1334 538.29 13.6278 538.583 12.7046C538.687 12.3749 538.395 12.0672 538.102 12.1991C537.642 12.3969 537.391 12.8365 536.806 13.1882C535.531 13.9795 533.504 13.3421 532.731 11.8694C531.957 10.3966 531.811 8.77006 532.229 7.14348C532.438 6.28622 532.731 5.40698 533.232 4.68161C533.838 3.82436 535.176 3.27484 536.158 3.40672C538.144 3.64851 539.001 4.70359 539.858 5.69274C540.819 6.79178 541.112 7.31932 541.655 7.40725L542.366 7.40725V7.40725Z" fill="white" fill-opacity="0.2"/>
<path d="M598.742 8.81438C598.742 8.24287 598.533 7.42958 598.533 6.88006C598.533 6.30855 598.533 5.73705 598.595 5.16555C598.804 3.20925 599.452 1.36285 600.853 0.0659765C599.599 -0.0219473 596.443 -0.0219475 595.189 0.065976C596.568 1.36285 597.237 3.20925 597.425 5.16555C597.488 5.73705 597.488 6.30855 597.488 6.88006C597.488 7.45156 597.279 8.26485 597.279 8.81438L598.742 8.81438Z" fill="white" fill-opacity="0.2"/>
<path d="M598.366 7.40725C598.888 7.31932 599.202 6.79178 600.163 5.69274C601.02 4.70359 601.877 3.64851 603.842 3.40672C604.845 3.27484 606.162 3.84634 606.768 4.68162C607.29 5.40699 607.562 6.26424 607.771 7.14348C608.189 8.77006 608.043 10.3747 607.269 11.8694C606.517 13.3421 604.469 13.9795 603.194 13.1882C602.525 12.7706 602.295 12.243 601.668 12.1331C601.501 12.0892 601.334 12.287 601.375 12.4848C601.626 13.474 602.295 13.6059 602.609 14.7709C602.985 16.1776 603.194 17.2767 601.292 19.0351C599.829 20.376 596.297 20.2661 594.75 19.0351C593.182 17.7822 593.036 16.6392 593.412 15.2544C593.705 14.1334 594.29 13.6278 594.583 12.7046C594.687 12.3749 594.395 12.0672 594.102 12.1991C593.642 12.3969 593.391 12.8365 592.806 13.1882C591.531 13.9795 589.504 13.3421 588.731 11.8694C587.957 10.3966 587.811 8.77006 588.229 7.14348C588.438 6.28622 588.731 5.40698 589.232 4.68161C589.838 3.82436 591.176 3.27484 592.158 3.40672C594.144 3.64851 595.001 4.70359 595.858 5.69274C596.819 6.79178 597.112 7.31932 597.655 7.40725L598.366 7.40725V7.40725Z" fill="white" fill-opacity="0.2"/>
<path d="M654.742 8.81438C654.742 8.24287 654.533 7.42958 654.533 6.88006C654.533 6.30855 654.533 5.73705 654.595 5.16555C654.804 3.20925 655.452 1.36285 656.853 0.0659765C655.599 -0.0219473 652.443 -0.0219475 651.189 0.065976C652.568 1.36285 653.237 3.20925 653.425 5.16555C653.488 5.73705 653.488 6.30855 653.488 6.88006C653.488 7.45156 653.279 8.26485 653.279 8.81438L654.742 8.81438Z" fill="white" fill-opacity="0.2"/>
<path d="M654.366 7.40725C654.888 7.31932 655.202 6.79178 656.163 5.69274C657.02 4.70359 657.877 3.64851 659.842 3.40672C660.845 3.27484 662.162 3.84634 662.768 4.68162C663.29 5.40699 663.562 6.26424 663.771 7.14348C664.189 8.77006 664.043 10.3747 663.269 11.8694C662.517 13.3421 660.469 13.9795 659.194 13.1882C658.525 12.7706 658.295 12.243 657.668 12.1331C657.501 12.0892 657.334 12.287 657.375 12.4848C657.626 13.474 658.295 13.6059 658.609 14.7709C658.985 16.1776 659.194 17.2767 657.292 19.0351C655.829 20.376 652.297 20.2661 650.75 19.0351C649.182 17.7822 649.036 16.6392 649.412 15.2544C649.705 14.1334 650.29 13.6278 650.583 12.7046C650.687 12.3749 650.395 12.0672 650.102 12.1991C649.642 12.3969 649.391 12.8365 648.806 13.1882C647.531 13.9795 645.504 13.3421 644.731 11.8694C643.957 10.3966 643.811 8.77006 644.229 7.14348C644.438 6.28622 644.731 5.40698 645.232 4.68161C645.838 3.82436 647.176 3.27484 648.158 3.40672C650.144 3.64851 651.001 4.70359 651.858 5.69274C652.819 6.79178 653.112 7.31932 653.655 7.40725L654.366 7.40725V7.40725Z" fill="white" fill-opacity="0.2"/>
<path d="M710.742 8.81438C710.742 8.24287 710.533 7.42958 710.533 6.88006C710.533 6.30855 710.533 5.73705 710.595 5.16555C710.804 3.20925 711.452 1.36285 712.853 0.0659765C711.599 -0.0219473 708.443 -0.0219475 707.189 0.065976C708.568 1.36285 709.237 3.20925 709.425 5.16555C709.488 5.73705 709.488 6.30855 709.488 6.88006C709.488 7.45156 709.279 8.26485 709.279 8.81438L710.742 8.81438Z" fill="white" fill-opacity="0.2"/>
<path d="M710.366 7.40725C710.888 7.31932 711.202 6.79178 712.163 5.69274C713.02 4.70359 713.877 3.64851 715.842 3.40672C716.845 3.27484 718.162 3.84634 718.768 4.68162C719.29 5.40699 719.562 6.26424 719.771 7.14348C720.189 8.77006 720.043 10.3747 719.269 11.8694C718.517 13.3421 716.469 13.9795 715.194 13.1882C714.525 12.7706 714.295 12.243 713.668 12.1331C713.501 12.0892 713.334 12.287 713.375 12.4848C713.626 13.474 714.295 13.6059 714.609 14.7709C714.985 16.1776 715.194 17.2767 713.292 19.0351C711.829 20.376 708.297 20.2661 706.75 19.0351C705.182 17.7822 705.036 16.6392 705.412 15.2544C705.705 14.1334 706.29 13.6278 706.583 12.7046C706.687 12.3749 706.395 12.0672 706.102 12.1991C705.642 12.3969 705.391 12.8365 704.806 13.1882C703.531 13.9795 701.504 13.3421 700.731 11.8694C699.957 10.3966 699.811 8.77006 700.229 7.14348C700.438 6.28622 700.731 5.40698 701.232 4.68161C701.838 3.82436 703.176 3.27484 704.158 3.40672C706.144 3.64851 707.001 4.70359 707.858 5.69274C708.819 6.79178 709.112 7.31932 709.655 7.40725L710.366 7.40725V7.40725Z" fill="white" fill-opacity="0.2"/>
<path d="M766.742 8.81438C766.742 8.24287 766.533 7.42958 766.533 6.88006C766.533 6.30855 766.533 5.73705 766.595 5.16555C766.804 3.20925 767.452 1.36285 768.853 0.0659765C767.599 -0.0219473 764.443 -0.0219475 763.189 0.065976C764.568 1.36285 765.237 3.20925 765.425 5.16555C765.488 5.73705 765.488 6.30855 765.488 6.88006C765.488 7.45156 765.279 8.26485 765.279 8.81438L766.742 8.81438Z" fill="white" fill-opacity="0.2"/>
<path d="M766.366 7.40725C766.888 7.31932 767.202 6.79178 768.163 5.69274C769.02 4.70359 769.877 3.64851 771.842 3.40672C772.845 3.27484 774.162 3.84634 774.768 4.68162C775.29 5.40699 775.562 6.26424 775.771 7.14348C776.189 8.77006 776.043 10.3747 775.269 11.8694C774.517 13.3421 772.469 13.9795 771.194 13.1882C770.525 12.7706 770.295 12.243 769.668 12.1331C769.501 12.0892 769.334 12.287 769.375 12.4848C769.626 13.474 770.295 13.6059 770.609 14.7709C770.985 16.1776 771.194 17.2767 769.292 19.0351C767.829 20.376 764.297 20.2661 762.75 19.0351C761.182 17.7822 761.036 16.6392 761.412 15.2544C761.705 14.1334 762.29 13.6278 762.583 12.7046C762.687 12.3749 762.395 12.0672 762.102 12.1991C761.642 12.3969 761.391 12.8365 760.806 13.1882C759.531 13.9795 757.504 13.3421 756.731 11.8694C755.957 10.3966 755.811 8.77006 756.229 7.14348C756.438 6.28622 756.731 5.40698 757.232 4.68161C757.838 3.82436 759.176 3.27484 760.158 3.40672C762.144 3.64851 763.001 4.70359 763.858 5.69274C764.819 6.79178 765.112 7.31932 765.655 7.40725L766.366 7.40725V7.40725Z" fill="white" fill-opacity="0.2"/>
<path d="M822.742 8.81438C822.742 8.24287 822.533 7.42958 822.533 6.88006C822.533 6.30855 822.533 5.73705 822.595 5.16555C822.804 3.20925 823.452 1.36285 824.853 0.0659765C823.599 -0.0219473 820.443 -0.0219475 819.189 0.065976C820.568 1.36285 821.237 3.20925 821.425 5.16555C821.488 5.73705 821.488 6.30855 821.488 6.88006C821.488 7.45156 821.279 8.26485 821.279 8.81438L822.742 8.81438Z" fill="white" fill-opacity="0.2"/>
<path d="M822.366 7.40725C822.888 7.31932 823.202 6.79178 824.163 5.69274C825.02 4.70359 825.877 3.64851 827.842 3.40672C828.845 3.27484 830.162 3.84634 830.768 4.68162C831.29 5.40699 831.562 6.26424 831.771 7.14348C832.189 8.77006 832.043 10.3747 831.269 11.8694C830.517 13.3421 828.469 13.9795 827.194 13.1882C826.525 12.7706 826.295 12.243 825.668 12.1331C825.501 12.0892 825.334 12.287 825.375 12.4848C825.626 13.474 826.295 13.6059 826.609 14.7709C826.985 16.1776 827.194 17.2767 825.292 19.0351C823.829 20.376 820.297 20.2661 818.75 19.0351C817.182 17.7822 817.036 16.6392 817.412 15.2544C817.705 14.1334 818.29 13.6278 818.583 12.7046C818.687 12.3749 818.395 12.0672 818.102 12.1991C817.642 12.3969 817.391 12.8365 816.806 13.1882C815.531 13.9795 813.504 13.3421 812.731 11.8694C811.957 10.3966 811.811 8.77006 812.229 7.14348C812.438 6.28622 812.731 5.40698 813.232 4.68161C813.838 3.82436 815.176 3.27484 816.158 3.40672C818.144 3.64851 819.001 4.70359 819.858 5.69274C820.819 6.79178 821.112 7.31932 821.655 7.40725L822.366 7.40725V7.40725Z" fill="white" fill-opacity="0.2"/>
<path d="M878.742 8.81438C878.742 8.24287 878.533 7.42958 878.533 6.88006C878.533 6.30855 878.533 5.73705 878.595 5.16555C878.804 3.20925 879.452 1.36285 880.853 0.0659765C879.599 -0.0219473 876.443 -0.0219475 875.189 0.065976C876.568 1.36285 877.237 3.20925 877.425 5.16555C877.488 5.73705 877.488 6.30855 877.488 6.88006C877.488 7.45156 877.279 8.26485 877.279 8.81438L878.742 8.81438Z" fill="white" fill-opacity="0.2"/>
<path d="M878.366 7.40725C878.888 7.31932 879.202 6.79178 880.163 5.69274C881.02 4.70359 881.877 3.64851 883.842 3.40672C884.845 3.27484 886.162 3.84634 886.768 4.68162C887.29 5.40699 887.562 6.26424 887.771 7.14348C888.189 8.77006 888.043 10.3747 887.269 11.8694C886.517 13.3421 884.469 13.9795 883.194 13.1882C882.525 12.7706 882.295 12.243 881.668 12.1331C881.501 12.0892 881.334 12.287 881.375 12.4848C881.626 13.474 882.295 13.6059 882.609 14.7709C882.985 16.1776 883.194 17.2767 881.292 19.0351C879.829 20.376 876.297 20.2661 874.75 19.0351C873.182 17.7822 873.036 16.6392 873.412 15.2544C873.705 14.1334 874.29 13.6278 874.583 12.7046C874.687 12.3749 874.395 12.0672 874.102 12.1991C873.642 12.3969 873.391 12.8365 872.806 13.1882C871.531 13.9795 869.504 13.3421 868.731 11.8694C867.957 10.3966 867.811 8.77006 868.229 7.14348C868.438 6.28622 868.731 5.40698 869.232 4.68161C869.838 3.82436 871.176 3.27484 872.158 3.40672C874.144 3.64851 875.001 4.70359 875.858 5.69274C876.819 6.79178 877.112 7.31932 877.655 7.40725L878.366 7.40725V7.40725Z" fill="white" fill-opacity="0.2"/>
<path d="M934.742 8.81438C934.742 8.24287 934.533 7.42958 934.533 6.88006C934.533 6.30855 934.533 5.73705 934.595 5.16555C934.804 3.20925 935.452 1.36285 936.853 0.0659765C935.599 -0.0219473 932.443 -0.0219475 931.189 0.065976C932.568 1.36285 933.237 3.20925 933.425 5.16555C933.488 5.73705 933.488 6.30855 933.488 6.88006C933.488 7.45156 933.279 8.26485 933.279 8.81438L934.742 8.81438Z" fill="white" fill-opacity="0.2"/>
<path d="M934.366 7.40725C934.888 7.31932 935.202 6.79178 936.163 5.69274C937.02 4.70359 937.877 3.64851 939.842 3.40672C940.845 3.27484 942.162 3.84634 942.768 4.68162C943.29 5.40699 943.562 6.26424 943.771 7.14348C944.189 8.77006 944.043 10.3747 943.269 11.8694C942.517 13.3421 940.469 13.9795 939.194 13.1882C938.525 12.7706 938.295 12.243 937.668 12.1331C937.501 12.0892 937.334 12.287 937.375 12.4848C937.626 13.474 938.295 13.6059 938.609 14.7709C938.985 16.1776 939.194 17.2767 937.292 19.0351C935.829 20.376 932.297 20.2661 930.75 19.0351C929.182 17.7822 929.036 16.6392 929.412 15.2544C929.705 14.1334 930.29 13.6278 930.583 12.7046C930.687 12.3749 930.395 12.0672 930.102 12.1991C929.642 12.3969 929.391 12.8365 928.806 13.1882C927.531 13.9795 925.504 13.3421 924.731 11.8694C923.957 10.3966 923.811 8.77006 924.229 7.14348C924.438 6.28622 924.731 5.40698 925.232 4.68161C925.838 3.82436 927.176 3.27484 928.158 3.40672C930.144 3.64851 931.001 4.70359 931.858 5.69274C932.819 6.79178 933.112 7.31932 933.655 7.40725L934.366 7.40725V7.40725Z" fill="white" fill-opacity="0.2"/>
<path d="M990.742 8.81438C990.742 8.24287 990.533 7.42958 990.533 6.88006C990.533 6.30855 990.533 5.73705 990.595 5.16555C990.804 3.20925 991.452 1.36285 992.853 0.0659765C991.599 -0.0219473 988.443 -0.0219475 987.189 0.065976C988.568 1.36285 989.237 3.20925 989.425 5.16555C989.488 5.73705 989.488 6.30855 989.488 6.88006C989.488 7.45156 989.279 8.26485 989.279 8.81438L990.742 8.81438Z" fill="white" fill-opacity="0.2"/>
<path d="M990.366 7.40725C990.888 7.31932 991.202 6.79178 992.163 5.69274C993.02 4.70359 993.877 3.64851 995.842 3.40672C996.845 3.27484 998.162 3.84634 998.768 4.68162C999.29 5.40699 999.562 6.26424 999.771 7.14348C1000.19 8.77006 1000.04 10.3747 999.269 11.8694C998.517 13.3421 996.469 13.9795 995.194 13.1882C994.525 12.7706 994.295 12.243 993.668 12.1331C993.501 12.0892 993.334 12.287 993.375 12.4848C993.626 13.474 994.295 13.6059 994.609 14.7709C994.985 16.1776 995.194 17.2767 993.292 19.0351C991.829 20.376 988.297 20.2661 986.75 19.0351C985.182 17.7822 985.036 16.6392 985.412 15.2544C985.705 14.1334 986.29 13.6278 986.583 12.7046C986.687 12.3749 986.395 12.0672 986.102 12.1991C985.642 12.3969 985.391 12.8365 984.806 13.1882C983.531 13.9795 981.504 13.3421 980.731 11.8694C979.957 10.3966 979.811 8.77006 980.229 7.14348C980.438 6.28622 980.731 5.40698 981.232 4.68161C981.838 3.82436 983.176 3.27484 984.158 3.40672C986.144 3.64851 987.001 4.70359 987.858 5.69274C988.819 6.79178 989.112 7.31932 989.655 7.40725L990.366 7.40725V7.40725Z" fill="white" fill-opacity="0.2"/>
<path d="M1046.74 8.81438C1046.74 8.24287 1046.53 7.42958 1046.53 6.88006C1046.53 6.30855 1046.53 5.73705 1046.6 5.16555C1046.8 3.20925 1047.45 1.36285 1048.85 0.0659765C1047.6 -0.0219473 1044.44 -0.0219475 1043.19 0.065976C1044.57 1.36285 1045.24 3.20925 1045.43 5.16555C1045.49 5.73705 1045.49 6.30855 1045.49 6.88006C1045.49 7.45156 1045.28 8.26485 1045.28 8.81438L1046.74 8.81438Z" fill="white" fill-opacity="0.2"/>
<path d="M1046.37 7.40725C1046.89 7.31932 1047.2 6.79178 1048.16 5.69274C1049.02 4.70359 1049.88 3.64851 1051.84 3.40672C1052.84 3.27484 1054.16 3.84634 1054.77 4.68162C1055.29 5.40699 1055.56 6.26424 1055.77 7.14348C1056.19 8.77006 1056.04 10.3747 1055.27 11.8694C1054.52 13.3421 1052.47 13.9795 1051.19 13.1882C1050.52 12.7706 1050.3 12.243 1049.67 12.1331C1049.5 12.0892 1049.33 12.287 1049.38 12.4848C1049.63 13.474 1050.3 13.6059 1050.61 14.7709C1050.98 16.1776 1051.19 17.2767 1049.29 19.0351C1047.83 20.376 1044.3 20.2661 1042.75 19.0351C1041.18 17.7822 1041.04 16.6392 1041.41 15.2544C1041.7 14.1334 1042.29 13.6278 1042.58 12.7046C1042.69 12.3749 1042.39 12.0672 1042.1 12.1991C1041.64 12.3969 1041.39 12.8365 1040.81 13.1882C1039.53 13.9795 1037.5 13.3421 1036.73 11.8694C1035.96 10.3966 1035.81 8.77006 1036.23 7.14348C1036.44 6.28622 1036.73 5.40698 1037.23 4.68161C1037.84 3.82436 1039.18 3.27484 1040.16 3.40672C1042.14 3.64851 1043 4.70359 1043.86 5.69274C1044.82 6.79178 1045.11 7.31932 1045.66 7.40725L1046.37 7.40725V7.40725Z" fill="white" fill-opacity="0.2"/>
<path d="M1102.74 8.81438C1102.74 8.24287 1102.53 7.42958 1102.53 6.88006C1102.53 6.30855 1102.53 5.73705 1102.6 5.16555C1102.8 3.20925 1103.45 1.36285 1104.85 0.0659765C1103.6 -0.0219473 1100.44 -0.0219475 1099.19 0.065976C1100.57 1.36285 1101.24 3.20925 1101.43 5.16555C1101.49 5.73705 1101.49 6.30855 1101.49 6.88006C1101.49 7.45156 1101.28 8.26485 1101.28 8.81438L1102.74 8.81438Z" fill="white" fill-opacity="0.2"/>
<path d="M1102.37 7.40725C1102.89 7.31932 1103.2 6.79178 1104.16 5.69274C1105.02 4.70359 1105.88 3.64851 1107.84 3.40672C1108.84 3.27484 1110.16 3.84634 1110.77 4.68162C1111.29 5.40699 1111.56 6.26424 1111.77 7.14348C1112.19 8.77006 1112.04 10.3747 1111.27 11.8694C1110.52 13.3421 1108.47 13.9795 1107.19 13.1882C1106.52 12.7706 1106.3 12.243 1105.67 12.1331C1105.5 12.0892 1105.33 12.287 1105.38 12.4848C1105.63 13.474 1106.3 13.6059 1106.61 14.7709C1106.98 16.1776 1107.19 17.2767 1105.29 19.0351C1103.83 20.376 1100.3 20.2661 1098.75 19.0351C1097.18 17.7822 1097.04 16.6392 1097.41 15.2544C1097.7 14.1334 1098.29 13.6278 1098.58 12.7046C1098.69 12.3749 1098.39 12.0672 1098.1 12.1991C1097.64 12.3969 1097.39 12.8365 1096.81 13.1882C1095.53 13.9795 1093.5 13.3421 1092.73 11.8694C1091.96 10.3966 1091.81 8.77006 1092.23 7.14348C1092.44 6.28622 1092.73 5.40698 1093.23 4.68161C1093.84 3.82436 1095.18 3.27484 1096.16 3.40672C1098.14 3.64851 1099 4.70359 1099.86 5.69274C1100.82 6.79178 1101.11 7.31932 1101.66 7.40725L1102.37 7.40725V7.40725Z" fill="white" fill-opacity="0.2"/>
<path d="M1158.74 8.81438C1158.74 8.24287 1158.53 7.42958 1158.53 6.88006C1158.53 6.30855 1158.53 5.73705 1158.6 5.16555C1158.8 3.20925 1159.45 1.36285 1160.85 0.0659765C1159.6 -0.0219473 1156.44 -0.0219475 1155.19 0.065976C1156.57 1.36285 1157.24 3.20925 1157.43 5.16555C1157.49 5.73705 1157.49 6.30855 1157.49 6.88006C1157.49 7.45156 1157.28 8.26485 1157.28 8.81438L1158.74 8.81438Z" fill="white" fill-opacity="0.2"/>
<path d="M1158.37 7.40725C1158.89 7.31932 1159.2 6.79178 1160.16 5.69274C1161.02 4.70359 1161.88 3.64851 1163.84 3.40672C1164.84 3.27484 1166.16 3.84634 1166.77 4.68162C1167.29 5.40699 1167.56 6.26424 1167.77 7.14348C1168.19 8.77006 1168.04 10.3747 1167.27 11.8694C1166.52 13.3421 1164.47 13.9795 1163.19 13.1882C1162.52 12.7706 1162.3 12.243 1161.67 12.1331C1161.5 12.0892 1161.33 12.287 1161.38 12.4848C1161.63 13.474 1162.3 13.6059 1162.61 14.7709C1162.98 16.1776 1163.19 17.2767 1161.29 19.0351C1159.83 20.376 1156.3 20.2661 1154.75 19.0351C1153.18 17.7822 1153.04 16.6392 1153.41 15.2544C1153.7 14.1334 1154.29 13.6278 1154.58 12.7046C1154.69 12.3749 1154.39 12.0672 1154.1 12.1991C1153.64 12.3969 1153.39 12.8365 1152.81 13.1882C1151.53 13.9795 1149.5 13.3421 1148.73 11.8694C1147.96 10.3966 1147.81 8.77006 1148.23 7.14348C1148.44 6.28622 1148.73 5.40698 1149.23 4.68161C1149.84 3.82436 1151.18 3.27484 1152.16 3.40672C1154.14 3.64851 1155 4.70359 1155.86 5.69274C1156.82 6.79178 1157.11 7.31932 1157.66 7.40725L1158.37 7.40725V7.40725Z" fill="white" fill-opacity="0.2"/>
</svg>
